<svg xmlns="http://www.w3.org/2000/svg" xmlns:xlink="http://www.w3.org/1999/xlink" width="500" zoomAndPan="magnify" viewBox="0 0 375 374.999991" height="500" preserveAspectRatio="xMidYMid meet" version="1.0"><defs><clipPath id="b6cd210ebb"><path d="M 0 23.164062 L 375 23.164062 L 375 351.664062 L 0 351.664062 Z M 0 23.164062 " clip-rule="nonzero"/></clipPath><clipPath id="d3a778a00e"><path d="M 114 112.5 L 261 112.5 L 261 262.5 L 114 262.5 Z M 114 112.5 " clip-rule="nonzero"/></clipPath></defs><rect x="-37.5" width="450" fill="#ffffff" y="-37.499999" height="449.999989" fill-opacity="1"/><rect x="-37.5" width="450" fill="#ffffff" y="-37.499999" height="449.999989" fill-opacity="1"/><rect x="-37.5" width="450" fill="#ffffff" y="-37.499999" height="449.999989" fill-opacity="1"/><g clip-path="url(#b6cd210ebb)"><path fill="#fecc02" d="M 280.683594 23.164062 L 94.316406 23.164062 L 0.00390625 187.414062 L 94.316406 351.664062 L 280.683594 351.664062 L 374.996094 187.414062 L 280.683594 23.164062 M 275.550781 342.765625 L 99.449219 342.765625 L 10.265625 187.414062 L 99.449219 32.0625 L 275.550781 32.0625 L 364.734375 187.414062 L 275.550781 342.765625 " fill-opacity="1" fill-rule="nonzero"/></g><g clip-path="url(#d3a778a00e)"><path fill="#d40029" d="M 240.730469 152.6875 C 236.46875 152.753906 232.570312 151.1875 229.578125 148.25 C 227.003906 145.71875 225.421875 142.460938 225.03125 138.925781 L 255.777344 138.925781 C 254.6875 146.566406 248.355469 152.546875 240.730469 152.6875 Z M 188.894531 183.585938 C 187.378906 180.792969 184.421875 178.894531 181.027344 178.894531 L 165.253906 178.894531 L 165.253906 147.515625 L 182.714844 147.515625 L 182.714844 159.882812 L 192.25 159.882812 L 192.25 147.515625 L 209.710938 147.515625 L 209.710938 181.171875 C 209.710938 181.242188 209.714844 181.316406 209.722656 181.386719 L 193.742188 181.386719 C 191.808594 181.386719 190.078125 182.242188 188.894531 183.585938 Z M 181.027344 191.804688 L 159.0625 191.8125 C 159.058594 191.8125 159.058594 191.8125 159.058594 191.8125 C 156.953125 191.8125 154.996094 190.871094 153.683594 189.230469 L 140.324219 172.527344 L 140.199219 172.367188 C 139.339844 171.292969 137.773438 171.117188 136.695312 171.976562 C 135.621094 172.835938 135.445312 174.40625 136.304688 175.480469 L 144.910156 186.242188 L 131.394531 257.496094 L 119.65625 257.496094 L 119.65625 174.246094 C 119.65625 170.128906 121.054688 166.078125 123.589844 162.832031 L 124.460938 161.726562 C 126.835938 158.683594 130.671875 157.183594 134.488281 157.8125 L 135.132812 157.921875 C 137.628906 158.332031 139.898438 159.632812 141.496094 161.546875 L 158.78125 182.953125 C 159.253906 183.539062 159.964844 183.878906 160.71875 183.878906 L 181.027344 183.878906 C 183.214844 183.878906 184.992188 185.65625 184.992188 187.84375 C 184.992188 190.027344 183.214844 191.804688 181.027344 191.804688 Z M 119.023438 138.257812 C 119.023438 130.296875 125.5 123.824219 133.457031 123.824219 C 141.414062 123.824219 147.890625 130.296875 147.890625 138.257812 C 147.890625 146.214844 141.414062 152.691406 133.457031 152.691406 C 125.5 152.691406 119.023438 146.214844 119.023438 138.257812 Z M 260.925781 136.433594 L 260.925781 119.753906 C 260.925781 115.746094 257.664062 112.484375 253.65625 112.484375 L 227.222656 112.484375 C 223.214844 112.484375 219.953125 115.746094 219.953125 119.753906 L 219.953125 133.941406 L 213.8125 133.941406 C 212.4375 133.941406 211.324219 135.058594 211.324219 136.433594 C 211.324219 137.8125 212.4375 138.925781 213.8125 138.925781 L 220.027344 138.925781 C 220.4375 143.808594 222.546875 148.332031 226.085938 151.804688 C 228.617188 154.292969 231.675781 156.035156 235 156.945312 C 233.613281 157.714844 232.371094 158.742188 231.335938 159.980469 L 214.695312 180.589844 L 214.695312 145.027344 C 214.695312 143.648438 213.578125 142.535156 212.203125 142.535156 L 162.765625 142.535156 C 161.386719 142.535156 160.269531 143.648438 160.269531 145.027344 L 160.269531 176.867188 L 145.347656 158.382812 C 144.441406 157.300781 143.398438 156.351562 142.253906 155.558594 C 148.550781 152.34375 152.875 145.796875 152.875 138.257812 C 152.875 127.550781 144.164062 118.839844 133.457031 118.839844 C 122.75 118.839844 114.039062 127.550781 114.039062 138.257812 C 114.039062 145.597656 118.136719 152 124.164062 155.300781 C 122.800781 156.203125 121.570312 157.328125 120.53125 158.65625 L 119.664062 159.761719 C 116.445312 163.878906 114.675781 169.023438 114.675781 174.246094 L 114.675781 259.988281 C 114.675781 261.363281 115.789062 262.480469 117.167969 262.480469 L 133.457031 262.480469 C 134.65625 262.480469 135.683594 261.628906 135.90625 260.453125 L 149.011719 191.371094 L 149.789062 192.339844 C 152.054688 195.175781 155.429688 196.796875 159.058594 196.796875 C 159.058594 196.796875 159.0625 196.796875 159.066406 196.796875 L 181.03125 196.789062 C 184.421875 196.789062 187.378906 194.886719 188.894531 192.097656 C 190.078125 193.441406 191.804688 194.296875 193.738281 194.296875 L 215.707031 194.304688 C 215.707031 194.304688 215.710938 194.304688 215.710938 194.304688 C 218.074219 194.304688 220.332031 193.410156 222.050781 191.835938 L 238.808594 171.078125 C 239.527344 170.1875 240.832031 170.046875 241.730469 170.765625 C 242.621094 171.488281 242.761719 172.796875 242.042969 173.6875 L 228.191406 190.839844 L 241.3125 259.988281 L 257.601562 259.988281 L 257.601562 174.246094 C 257.601562 169.550781 256.03125 164.996094 253.140625 161.300781 L 252.273438 160.1875 C 250.972656 158.523438 249.308594 157.238281 247.453125 156.382812 C 255.289062 153.402344 260.925781 145.582031 260.925781 136.433594 " fill-opacity="1" fill-rule="nonzero"/></g></svg>