<svg xmlns="http://www.w3.org/2000/svg" xmlns:xlink="http://www.w3.org/1999/xlink" width="500" zoomAndPan="magnify" viewBox="0 0 375 374.999991" height="500" preserveAspectRatio="xMidYMid meet" version="1.0"><defs><clipPath id="c4772787da"><path d="M 0 23.164062 L 375 23.164062 L 375 351.664062 L 0 351.664062 Z M 0 23.164062 " clip-rule="nonzero"/></clipPath><clipPath id="024572f0c6"><path d="M 146 117.273438 L 229 117.273438 L 229 204 L 146 204 Z M 146 117.273438 " clip-rule="nonzero"/></clipPath><clipPath id="d9ec7a549c"><path d="M 153 117.273438 L 222 117.273438 L 222 137 L 153 137 Z M 153 117.273438 " clip-rule="nonzero"/></clipPath><clipPath id="2cbfe411f7"><path d="M 154 117.273438 L 166 117.273438 L 166 137 L 154 137 Z M 154 117.273438 " clip-rule="nonzero"/></clipPath><clipPath id="71dc56bc14"><path d="M 209 117.273438 L 221 117.273438 L 221 137 L 209 137 Z M 209 117.273438 " clip-rule="nonzero"/></clipPath><clipPath id="d3d5e8f34d"><path d="M 112.5 152 L 185 152 L 185 257.523438 L 112.5 257.523438 Z M 112.5 152 " clip-rule="nonzero"/></clipPath><clipPath id="a542084323"><path d="M 190 152 L 262 152 L 262 257.523438 L 190 257.523438 Z M 190 152 " clip-rule="nonzero"/></clipPath></defs><rect x="-37.5" width="450" fill="#ffffff" y="-37.499999" height="449.999989" fill-opacity="1"/><rect x="-37.5" width="450" fill="#ffffff" y="-37.499999" height="449.999989" fill-opacity="1"/><g clip-path="url(#c4772787da)"><path fill="#fecc02" d="M 280.683594 23.164062 L 94.316406 23.164062 L 0.00390625 187.414062 L 94.316406 351.664062 L 280.683594 351.664062 L 374.996094 187.414062 L 280.683594 23.164062 M 275.550781 342.765625 L 99.449219 342.765625 L 10.265625 187.414062 L 99.449219 32.0625 L 275.550781 32.0625 L 364.734375 187.414062 L 275.550781 342.765625 " fill-opacity="1" fill-rule="nonzero"/></g><path fill="#ffffff" d="M 226.445312 202.132812 L 148.492188 202.132812 L 156.101562 118.921875 L 218.839844 118.921875 L 226.445312 202.132812 " fill-opacity="1" fill-rule="nonzero"/><g clip-path="url(#024572f0c6)"><path stroke-linecap="butt" transform="matrix(0.0629459, 0, 0, -0.0628566, 53.645619, 320.21371)" fill="none" stroke-linejoin="round" d="M 2745.211347 1878.576442 L 1506.795934 1878.576442 L 1627.683548 3202.398584 L 2624.38579 3202.398584 Z M 2745.211347 1878.576442 " stroke="#2b2728" stroke-width="50" stroke-opacity="1" stroke-miterlimit="10"/></g><path fill="#ffffff" d="M 220.308594 135.027344 L 218.839844 118.921875 L 156.101562 118.921875 L 154.628906 135.027344 L 220.308594 135.027344 " fill-opacity="1" fill-rule="nonzero"/><g clip-path="url(#d9ec7a549c)"><path stroke-linecap="butt" transform="matrix(0.0629459, 0, 0, -0.0628566, 53.645619, 320.21371)" fill="none" stroke-linejoin="round" d="M 2647.719334 2946.172939 L 2624.38579 3202.398584 L 1627.683548 3202.398584 L 1604.287947 2946.172939 Z M 2647.719334 2946.172939 " stroke="#2b2728" stroke-width="50" stroke-opacity="1" stroke-miterlimit="10"/></g><g clip-path="url(#2cbfe411f7)"><path stroke-linecap="butt" transform="matrix(0.0629459, 0, 0, -0.0628566, 53.645619, 320.21371)" fill="none" stroke-linejoin="round" d="M 1627.683548 3202.398584 L 1756.018038 3074.316834 L 1627.683548 2946.172939 " stroke="#2b2728" stroke-width="50" stroke-opacity="1" stroke-miterlimit="10"/></g><g clip-path="url(#71dc56bc14)"><path stroke-linecap="butt" transform="matrix(0.0629459, 0, 0, -0.0628566, 53.645619, 320.21371)" fill="none" stroke-linejoin="round" d="M 2624.38579 3202.398584 L 2496.113358 3074.316834 L 2624.38579 2946.172939 " stroke="#2b2728" stroke-width="50" stroke-opacity="1" stroke-miterlimit="10"/></g><path stroke-linecap="butt" transform="matrix(0.0629459, 0, 0, -0.0628566, 53.645619, 320.21371)" fill="none" stroke-linejoin="round" d="M 1521.379399 2016.601462 L 2730.689939 2016.601462 " stroke="#2b2728" stroke-width="50" stroke-opacity="1" stroke-miterlimit="10"/><path stroke-linecap="butt" transform="matrix(0.0629459, 0, 0, -0.0628566, 53.645619, 320.21371)" fill-opacity="1" fill="#ffffff" fill-rule="nonzero" stroke-linejoin="round" d="M 2385.216969 2865.694595 L 2385.216969 2699.579837 C 2385.216969 2564.724234 2269.169824 2455.286116 2126.00364 2455.286116 C 1982.7754 2455.286116 1866.790312 2564.724234 1866.790312 2699.579837 L 1866.790312 2865.694595 " stroke="#2b2728" stroke-width="50" stroke-opacity="1" stroke-miterlimit="10"/><path fill="#ffffff" d="M 152.210938 205.976562 C 152.425781 209.203125 149.996094 211.988281 146.773438 212.207031 C 143.542969 212.425781 140.757812 209.996094 140.535156 206.777344 L 137.703125 165.316406 C 137.476562 162.097656 139.914062 159.308594 143.136719 159.09375 C 146.359375 158.875 149.152344 161.300781 149.367188 164.519531 L 152.210938 205.976562 " fill-opacity="1" fill-rule="nonzero"/><path stroke-linecap="round" transform="matrix(0.0629459, 0, 0, -0.0628566, 53.645619, 320.21371)" fill="none" stroke-linejoin="round" d="M 1565.87448 1817.42533 C 1569.287632 1766.093197 1530.687993 1721.783499 1479.490724 1718.303355 C 1428.169339 1714.82321 1383.922487 1753.477673 1380.385221 1804.685515 L 1335.393681 2464.297205 C 1331.794357 2515.505046 1370.518111 2559.87689 1421.71538 2563.294889 C 1472.91265 2566.775033 1517.283617 2528.182716 1520.696769 2476.974874 Z M 1565.87448 1817.42533 " stroke="#2b2728" stroke-width="50" stroke-opacity="1" stroke-miterlimit="10"/><path fill="#ffffff" d="M 145.9375 200.074219 C 146.164062 203.292969 143.726562 206.078125 140.503906 206.296875 C 137.28125 206.519531 134.488281 204.09375 134.273438 200.875 L 131.433594 159.40625 C 131.214844 156.191406 133.648438 153.40625 136.867188 153.183594 C 140.09375 152.964844 142.882812 155.390625 143.105469 158.617188 L 145.9375 200.074219 " fill-opacity="1" fill-rule="nonzero"/><path stroke-linecap="round" transform="matrix(0.0629459, 0, 0, -0.0628566, 53.645619, 320.21371)" fill="none" stroke-linejoin="round" d="M 1466.210462 1911.327088 C 1469.809785 1860.119246 1431.086032 1815.809548 1379.888762 1812.329404 C 1328.691493 1808.787114 1284.320525 1847.379431 1280.907374 1898.587273 L 1235.791719 2558.323254 C 1232.316511 2609.46895 1270.978207 2653.778648 1322.113419 2657.320938 C 1373.372746 2660.801083 1417.681656 2622.208765 1421.218922 2570.876632 Z M 1466.210462 1911.327088 " stroke="#2b2728" stroke-width="50" stroke-opacity="1" stroke-miterlimit="10"/><path fill="#ffffff" d="M 136.9375 194.929688 C 137.164062 198.144531 134.726562 200.9375 131.503906 201.15625 C 128.28125 201.378906 125.484375 198.945312 125.265625 195.726562 L 122.433594 154.265625 C 122.210938 151.046875 124.640625 148.257812 127.863281 148.035156 C 131.09375 147.816406 133.882812 150.25 134.101562 153.46875 L 136.9375 194.929688 " fill-opacity="1" fill-rule="nonzero"/><path stroke-linecap="round" transform="matrix(0.0629459, 0, 0, -0.0628566, 53.645619, 320.21371)" fill="none" stroke-linejoin="round" d="M 1323.23045 1993.172631 C 1326.829774 1942.026935 1288.106021 1897.592946 1236.908751 1894.112802 C 1185.711481 1890.570511 1141.278457 1929.28712 1137.803248 1980.494962 L 1092.811708 2640.106652 C 1089.274442 2691.314493 1127.87408 2735.686337 1179.07135 2739.228627 C 1230.392735 2742.708771 1274.701644 2703.992163 1278.176853 2652.784321 Z M 1323.23045 1993.172631 " stroke="#2b2728" stroke-width="50" stroke-opacity="1" stroke-miterlimit="10"/><path fill="#ffffff" d="M 155.109375 255.8125 C 154.679688 255.8125 154.269531 255.636719 153.976562 255.328125 C 153.679688 255.019531 153.523438 254.605469 153.535156 254.175781 L 154.453125 229.800781 L 133.097656 218.769531 C 132.832031 218.632812 132.617188 218.429688 132.464844 218.171875 L 116.359375 191.175781 C 116.226562 190.957031 116.152344 190.714844 116.140625 190.464844 L 114.605469 165.566406 C 113.976562 156.605469 117.089844 154.875 120.539062 154.339844 C 120.753906 154.308594 120.964844 154.292969 121.179688 154.292969 C 123.804688 154.292969 125.386719 156.78125 125.90625 158.246094 C 125.921875 158.296875 125.9375 158.34375 125.953125 158.390625 C 127.167969 163.265625 128.507812 178.804688 128.808594 182.46875 L 129.859375 183.1875 C 131.042969 182.046875 132.378906 181.777344 133.398438 181.777344 C 135.785156 181.777344 138.023438 183.269531 139.101562 183.984375 C 140.800781 185.117188 152.972656 197.226562 156.246094 200.492188 C 158.25 200.863281 165.527344 202.476562 174.15625 207.800781 C 184.144531 213.960938 183.402344 222.898438 183.246094 224.179688 L 183.246094 254.238281 C 183.246094 255.105469 182.539062 255.8125 181.671875 255.8125 L 155.109375 255.8125 " fill-opacity="1" fill-rule="nonzero"/><g clip-path="url(#d3d5e8f34d)"><path fill="#d40029" d="M 121.179688 152.71875 C 120.890625 152.71875 120.59375 152.746094 120.300781 152.789062 C 114.714844 153.648438 112.472656 157.628906 113.035156 165.695312 L 114.566406 190.558594 C 114.597656 191.0625 114.746094 191.546875 115.003906 191.980469 L 131.113281 218.976562 C 131.414062 219.484375 131.847656 219.894531 132.371094 220.164062 L 152.847656 230.738281 L 151.96875 254.121094 C 151.929688 254.976562 152.25 255.804688 152.84375 256.421875 C 153.433594 257.035156 154.253906 257.382812 155.109375 257.382812 L 181.671875 257.382812 C 183.402344 257.382812 184.820312 255.972656 184.820312 254.238281 L 184.820312 224.261719 C 185.019531 222.402344 185.480469 212.9375 174.980469 206.460938 C 166.753906 201.390625 159.660156 199.578125 157.023438 199.046875 C 151.96875 193.996094 141.6875 183.816406 139.976562 182.675781 C 138.136719 181.457031 135.921875 180.207031 133.398438 180.207031 C 132.265625 180.207031 131.203125 180.472656 130.257812 180.972656 C 129.808594 175.757812 128.609375 162.519531 127.476562 158.007812 C 127.449219 157.910156 127.425781 157.816406 127.394531 157.722656 C 126.574219 155.417969 124.460938 152.71875 121.179688 152.71875 Z M 121.179688 155.863281 C 123.394531 155.863281 124.421875 158.773438 124.421875 158.773438 C 125.761719 164.132812 127.296875 183.351562 127.296875 183.351562 L 130.175781 185.292969 C 131.070312 183.847656 132.214844 183.351562 133.398438 183.351562 C 135.253906 183.351562 137.175781 184.589844 138.230469 185.292969 C 139.957031 186.441406 155.492188 201.957031 155.492188 201.957031 C 155.492188 201.957031 163.542969 203.105469 173.324219 209.132812 C 183.105469 215.175781 181.671875 224.074219 181.671875 224.074219 L 181.671875 254.238281 L 155.109375 254.238281 L 156.066406 228.863281 L 133.820312 217.375 L 117.707031 190.371094 L 116.175781 165.472656 C 115.601562 157.238281 118.285156 156.277344 120.777344 155.898438 C 120.914062 155.875 121.046875 155.863281 121.179688 155.863281 " fill-opacity="1" fill-rule="nonzero"/></g><path stroke-linecap="round" transform="matrix(0.0629459, 0, 0, -0.0628566, 53.645619, 320.21371)" fill-opacity="1" fill="#ffffff" fill-rule="nonzero" stroke-linejoin="round" d="M 1215.80927 2181.473312 C 1215.80927 2181.473312 1176.216715 2159.722408 1191.420752 2098.695587 C 1206.62479 2037.730911 1471.671504 1773.177777 1471.671504 1773.177777 " stroke="#2b2728" stroke-width="50" stroke-opacity="1" stroke-miterlimit="10"/><path fill="#ffffff" d="M 222.730469 205.976562 C 222.511719 209.203125 224.945312 211.988281 228.164062 212.207031 C 231.390625 212.425781 234.179688 209.996094 234.402344 206.777344 L 237.234375 165.316406 C 237.453125 162.097656 235.023438 159.308594 231.800781 159.09375 C 228.578125 158.875 225.785156 161.300781 225.5625 164.519531 L 222.730469 205.976562 " fill-opacity="1" fill-rule="nonzero"/><path stroke-linecap="round" transform="matrix(0.0629459, 0, 0, -0.0628566, 53.645619, 320.21371)" fill="none" stroke-linejoin="round" d="M 2686.194858 1817.42533 C 2682.719649 1766.093197 2721.381345 1721.783499 2772.516557 1718.303355 C 2823.775884 1714.82321 2868.084794 1753.477673 2871.62206 1804.685515 L 2916.6136 2464.297205 C 2920.088809 2515.505046 2881.48917 2559.87689 2830.2919 2563.294889 C 2779.094631 2566.775033 2734.723664 2528.182716 2731.186398 2476.974874 Z M 2686.194858 1817.42533 " stroke="#2b2728" stroke-width="50" stroke-opacity="1" stroke-miterlimit="10"/><path fill="#ffffff" d="M 228.992188 200.074219 C 228.773438 203.292969 231.210938 206.078125 234.433594 206.296875 C 237.65625 206.519531 240.449219 204.09375 240.664062 200.875 L 243.503906 159.40625 C 243.722656 156.191406 241.292969 153.40625 238.0625 153.183594 C 234.839844 152.964844 232.054688 155.390625 231.832031 158.617188 L 228.992188 200.074219 " fill-opacity="1" fill-rule="nonzero"/><path stroke-linecap="round" transform="matrix(0.0629459, 0, 0, -0.0628566, 53.645619, 320.21371)" fill="none" stroke-linejoin="round" d="M 2785.672704 1911.327088 C 2782.197495 1860.119246 2820.921249 1815.809548 2872.118518 1812.329404 C 2923.315788 1808.787114 2967.686755 1847.379431 2971.099907 1898.587273 L 3016.215561 2558.323254 C 3019.69077 2609.46895 2981.091131 2653.778648 2929.769747 2657.320938 C 2878.572477 2660.801083 2834.325625 2622.208765 2830.788359 2570.876632 Z M 2785.672704 1911.327088 " stroke="#2b2728" stroke-width="50" stroke-opacity="1" stroke-miterlimit="10"/><path fill="#ffffff" d="M 238 194.929688 C 237.773438 198.144531 240.210938 200.9375 243.441406 201.15625 C 246.65625 201.378906 249.453125 198.945312 249.664062 195.726562 L 252.503906 154.265625 C 252.722656 151.046875 250.289062 148.257812 247.070312 148.035156 C 243.84375 147.816406 241.054688 150.25 240.835938 153.46875 L 238 194.929688 " fill-opacity="1" fill-rule="nonzero"/><path stroke-linecap="round" transform="matrix(0.0629459, 0, 0, -0.0628566, 53.645619, 320.21371)" fill="none" stroke-linejoin="round" d="M 2928.77683 1993.172631 C 2925.177507 1942.026935 2963.90126 1897.592946 3015.222645 1894.112802 C 3066.2958 1890.570511 3110.728824 1929.28712 3114.079918 1980.494962 L 3159.195573 2640.106652 C 3162.670781 2691.314493 3124.009086 2735.686337 3072.873873 2739.228627 C 3021.614546 2742.708771 2977.305636 2703.992163 2973.830428 2652.784321 Z M 2928.77683 1993.172631 " stroke="#2b2728" stroke-width="50" stroke-opacity="1" stroke-miterlimit="10"/><path fill="#ffffff" d="M 193.265625 255.8125 C 192.398438 255.8125 191.691406 255.105469 191.691406 254.238281 L 191.691406 224.179688 C 191.527344 222.898438 190.796875 213.960938 200.78125 207.800781 C 209.410156 202.476562 216.6875 200.863281 218.691406 200.492188 C 221.957031 197.226562 234.136719 185.117188 235.835938 183.984375 C 236.90625 183.269531 239.152344 181.777344 241.539062 181.777344 C 242.558594 181.777344 243.886719 182.046875 245.078125 183.1875 L 246.132812 182.46875 C 246.4375 178.804688 247.765625 163.265625 248.992188 158.390625 C 249.003906 158.339844 249.015625 158.296875 249.03125 158.246094 C 249.550781 156.78125 251.125 154.292969 253.757812 154.292969 C 253.972656 154.292969 254.183594 154.308594 254.398438 154.339844 C 257.847656 154.875 260.957031 156.605469 260.335938 165.582031 L 258.796875 190.464844 C 258.78125 190.714844 258.703125 190.957031 258.578125 191.175781 L 242.46875 218.171875 C 242.320312 218.429688 242.097656 218.632812 241.839844 218.769531 L 220.476562 229.800781 L 221.402344 254.175781 C 221.421875 254.605469 221.257812 255.019531 220.960938 255.328125 C 220.667969 255.636719 220.257812 255.8125 219.828125 255.8125 L 193.265625 255.8125 " fill-opacity="1" fill-rule="nonzero"/><g clip-path="url(#a542084323)"><path fill="#d40029" d="M 253.757812 152.71875 C 250.476562 152.71875 248.363281 155.417969 247.550781 157.722656 C 247.519531 157.816406 247.488281 157.910156 247.460938 158.007812 C 246.328125 162.519531 245.125 175.757812 244.671875 180.972656 C 243.730469 180.472656 242.671875 180.207031 241.539062 180.207031 C 238.675781 180.207031 236.070312 181.941406 234.960938 182.675781 C 233.253906 183.816406 222.96875 193.996094 217.914062 199.046875 C 215.277344 199.578125 208.183594 201.390625 199.957031 206.460938 C 189.464844 212.9375 189.917969 222.410156 190.117188 224.261719 L 190.117188 254.238281 C 190.117188 255.972656 191.527344 257.382812 193.265625 257.382812 L 219.828125 257.382812 C 220.683594 257.382812 221.503906 257.035156 222.09375 256.421875 C 222.6875 255.804688 223.007812 254.976562 222.976562 254.121094 L 222.089844 230.738281 L 242.558594 220.164062 C 243.082031 219.894531 243.523438 219.484375 243.816406 218.976562 L 259.933594 191.980469 C 260.183594 191.546875 260.335938 191.0625 260.367188 190.558594 L 261.902344 165.660156 C 262.460938 157.628906 260.222656 153.648438 254.636719 152.789062 C 254.34375 152.746094 254.046875 152.71875 253.757812 152.71875 Z M 253.757812 155.863281 C 253.890625 155.863281 254.019531 155.875 254.160156 155.898438 C 256.652344 156.277344 259.332031 157.238281 258.761719 165.472656 L 257.226562 190.371094 L 241.117188 217.375 L 218.867188 228.863281 L 219.828125 254.238281 L 193.265625 254.238281 L 193.265625 224.074219 C 193.265625 224.074219 191.832031 215.175781 201.613281 209.132812 C 211.394531 203.105469 219.445312 201.957031 219.445312 201.957031 C 219.445312 201.957031 234.980469 186.441406 236.703125 185.292969 C 237.761719 184.589844 239.683594 183.351562 241.539062 183.351562 C 242.714844 183.351562 243.867188 183.847656 244.761719 185.292969 L 247.636719 183.351562 C 247.636719 183.351562 249.167969 164.132812 250.515625 158.773438 C 250.515625 158.773438 251.542969 155.863281 253.757812 155.863281 " fill-opacity="1" fill-rule="nonzero"/></g><path stroke-linecap="round" transform="matrix(0.0629459, 0, 0, -0.0628566, 53.645619, 320.21371)" fill-opacity="1" fill="#ffffff" fill-rule="nonzero" stroke-linejoin="round" d="M 3036.198011 2181.473312 C 3036.198011 2181.473312 3075.914681 2159.722408 3060.586528 2098.695587 C 3045.382491 2037.730911 2780.273719 1773.177777 2780.273719 1773.177777 " stroke="#2b2728" stroke-width="50" stroke-opacity="1" stroke-miterlimit="10"/></svg>