<svg xmlns="http://www.w3.org/2000/svg" xmlns:xlink="http://www.w3.org/1999/xlink" width="500" zoomAndPan="magnify" viewBox="0 0 375 374.999991" height="500" preserveAspectRatio="xMidYMid meet" version="1.0"><defs><clipPath id="6848c30366"><path d="M 0 23.164062 L 375 23.164062 L 375 351.664062 L 0 351.664062 Z M 0 23.164062 " clip-rule="nonzero"/></clipPath><clipPath id="10fc010cd1"><path d="M 83.558594 103.621094 L 291 103.621094 L 291 271.566406 L 83.558594 271.566406 Z M 83.558594 103.621094 " clip-rule="nonzero"/></clipPath></defs><rect x="-37.5" width="450" fill="#ffffff" y="-37.499999" height="449.999989" fill-opacity="1"/><rect x="-37.5" width="450" fill="#ffffff" y="-37.499999" height="449.999989" fill-opacity="1"/><g clip-path="url(#6848c30366)"><path fill="#fecc02" d="M 280.683594 23.164062 L 94.316406 23.164062 L 0.00390625 187.414062 L 94.316406 351.664062 L 280.683594 351.664062 L 374.996094 187.414062 L 280.683594 23.164062 M 275.550781 342.765625 L 99.449219 342.765625 L 10.265625 187.414062 L 99.449219 32.0625 L 275.550781 32.0625 L 364.734375 187.414062 L 275.550781 342.765625 " fill-opacity="1" fill-rule="nonzero"/></g><g clip-path="url(#10fc010cd1)"><path fill="#d40029" d="M 87.246094 148.164062 C 86.957031 148.292969 85.332031 148.9375 85.332031 148.179688 C 85.332031 147.8125 85.730469 147.429688 85.976562 147.214844 C 86.398438 146.839844 86.859375 146.511719 87.257812 146.109375 C 89.082031 144.25 88.757812 141.796875 88.488281 139.4375 C 88.363281 138.433594 88.519531 137.183594 89.324219 136.472656 C 90.316406 135.597656 91.910156 136.070312 92.980469 136.519531 C 94.324219 137.082031 95.539062 137.804688 96.964844 138.1875 C 98.472656 138.59375 100.050781 138.734375 101.605469 138.621094 C 107.675781 138.191406 113.042969 134 115.894531 128.753906 C 117.304688 126.171875 118.292969 122.875 117.191406 119.996094 C 116.652344 118.570312 115.59375 117.4375 114.265625 116.710938 C 113.71875 116.414062 113.136719 116.183594 112.546875 116.003906 C 112.054688 115.847656 111.542969 115.707031 111.136719 115.367188 C 110.40625 114.753906 110.871094 114.214844 111.648438 114.050781 C 112.777344 113.816406 114.050781 114.195312 115.175781 114.277344 C 118.3125 114.507812 121.398438 114.050781 124.363281 113.019531 C 127.386719 111.972656 130.128906 110.195312 133.296875 109.574219 C 136.234375 109 139.222656 109.417969 141.886719 110.777344 C 144.496094 112.117188 146.675781 114.160156 148.5625 116.375 C 150.59375 118.769531 152.207031 121.457031 153.996094 124.027344 C 157.546875 129.117188 161.597656 133.949219 166.589844 137.6875 C 171.664062 141.480469 177.726562 143.527344 183.988281 144.261719 C 187.257812 144.640625 190.566406 144.652344 193.84375 144.375 C 196.933594 144.109375 199.964844 143.46875 203.078125 143.609375 C 205.972656 143.746094 208.992188 144.535156 210.644531 147.117188 C 211.421875 148.355469 211.710938 149.828125 212.371094 151.121094 C 213.050781 152.453125 213.933594 153.679688 214.988281 154.734375 C 217.203125 156.953125 220.046875 158.265625 222.96875 159.265625 C 225.429688 160.105469 228.023438 161.421875 229.257812 163.839844 C 229.820312 164.949219 230.105469 166.296875 229.859375 167.527344 C 229.644531 168.667969 228.90625 169.617188 228.6875 170.765625 C 228.476562 171.875 228.683594 173.082031 229.417969 173.964844 C 230.273438 174.980469 231.496094 175.265625 232.636719 175.828125 C 233.933594 176.453125 234.453125 177.40625 234.542969 178.8125 C 234.640625 180.378906 234.6875 181.882812 235.398438 183.320312 C 236.078125 184.703125 237.207031 185.800781 238.527344 186.574219 C 239.738281 187.285156 241.097656 187.671875 242.339844 188.316406 C 245.136719 189.777344 247.414062 191.980469 248.972656 194.714844 C 249.707031 196.007812 250.347656 197.308594 251.238281 198.507812 C 252.121094 199.703125 253.148438 200.789062 254.304688 201.71875 C 256.722656 203.664062 259.640625 204.84375 262.675781 205.386719 C 264.175781 205.65625 265.703125 205.777344 267.222656 205.785156 C 268.683594 205.796875 270.128906 205.707031 271.59375 205.84375 C 274.359375 206.113281 277.621094 206.9375 279.253906 209.398438 C 280.863281 211.804688 280.742188 215.378906 280.050781 218.066406 C 278.515625 224.019531 273.484375 228.703125 268.410156 231.808594 C 262.882812 235.195312 256.542969 237.105469 250.144531 237.9375 C 246.886719 238.359375 243.597656 238.5 240.332031 238.875 C 237.078125 239.25 233.828125 239.742188 230.625 240.441406 C 224.519531 241.777344 218.054688 243.898438 213.613281 248.527344 C 211.371094 250.851562 209.847656 253.722656 208.941406 256.808594 C 208.519531 258.246094 208.28125 259.730469 207.710938 261.121094 C 207.277344 262.183594 206.585938 263.632812 205.410156 264.039062 C 204.207031 264.425781 202.9375 263.390625 202.199219 262.5625 C 201.160156 261.398438 200.28125 260.1875 199.011719 259.230469 C 196.589844 257.429688 193.632812 256.921875 190.71875 257.636719 C 187.734375 258.367188 185.214844 260.3125 182.175781 260.875 C 180.664062 261.15625 179.125 261.042969 177.714844 260.402344 C 177.097656 260.125 176.53125 259.742188 175.910156 259.457031 C 175.113281 259.097656 174.273438 258.835938 173.414062 258.675781 C 170.375 258.113281 166.863281 258.894531 164.945312 261.488281 C 163.992188 262.789062 163.59375 264.390625 163.664062 265.996094 C 163.703125 266.820312 164.019531 268.917969 162.90625 269.277344 C 162.019531 269.527344 161.34375 267.886719 161.136719 267.292969 C 160.648438 265.863281 160.304688 264.410156 159.710938 263.011719 C 158.492188 260.152344 156.449219 257.886719 154.105469 255.894531 C 153 254.949219 151.859375 254.097656 151.0625 252.863281 C 150.339844 251.722656 149.996094 250.429688 149.714844 249.125 C 149.050781 246.054688 148.578125 242.941406 147.660156 239.933594 C 146.765625 236.992188 145.414062 234.21875 143.558594 231.761719 C 141.578125 229.132812 139.113281 227.039062 136.550781 225.003906 C 134.265625 223.195312 132.15625 221.132812 130.851562 218.484375 C 129.496094 215.753906 128.742188 212.800781 128.246094 209.800781 C 127.722656 206.640625 127.261719 203.5 126.363281 200.414062 C 125.425781 197.210938 124.101562 194.125 122.269531 191.335938 C 120.492188 188.625 118.269531 186.238281 115.78125 184.175781 C 114.519531 183.128906 113.195312 182.171875 111.984375 181.074219 C 110.828125 180.019531 109.75 178.878906 108.789062 177.652344 C 107.003906 175.363281 105.679688 172.769531 104.691406 170.046875 C 103.617188 167.097656 103.09375 163.992188 102.058594 161.027344 C 100.804688 157.441406 99.089844 153.832031 96.550781 150.976562 C 95.363281 149.636719 93.921875 148.429688 92.210938 147.839844 C 90.550781 147.265625 88.828125 147.4375 87.246094 148.164062 Z M 88.097656 150.042969 C 91.132812 148.675781 93.328125 152.394531 94.394531 154.644531 C 95.675781 157.332031 96.46875 160.238281 97.128906 163.132812 C 98.539062 169.363281 99.707031 175.699219 102.945312 181.300781 C 104.554688 184.082031 106.582031 186.597656 108.863281 188.851562 C 111.160156 191.117188 113.175781 193.523438 114.480469 196.503906 C 116.960938 202.199219 116.507812 208.453125 117.371094 214.46875 C 117.796875 217.445312 118.519531 220.433594 119.925781 223.113281 C 121.351562 225.835938 123.390625 228.175781 125.75 230.132812 C 128.148438 232.125 130.816406 233.625 133.488281 235.195312 C 136.015625 236.679688 138.355469 238.464844 139.882812 241.015625 C 141.378906 243.511719 141.769531 246.3125 142.617188 249.050781 C 143.542969 252.046875 144.929688 254.902344 147.355469 256.960938 C 149.675781 258.941406 152.621094 259.972656 155.003906 261.871094 C 156.144531 262.78125 157.078125 263.894531 157.753906 265.1875 C 158.421875 266.453125 158.675781 267.898438 159.398438 269.136719 C 160.050781 270.253906 161.097656 271.203125 162.425781 271.351562 C 163.8125 271.488281 164.96875 270.617188 165.523438 269.382812 C 166.113281 268.058594 165.894531 266.757812 166.035156 265.371094 C 166.1875 263.824219 167.089844 262.558594 168.511719 261.9375 C 169.9375 261.3125 171.605469 261.339844 173.074219 261.777344 C 174.585938 262.230469 175.746094 263.292969 177.171875 263.929688 C 180.046875 265.214844 183.230469 264.996094 186.171875 264.074219 C 188.691406 263.28125 191.492188 261.425781 194.222656 262.355469 C 195.433594 262.78125 196.371094 263.71875 197.132812 264.726562 C 198.023438 265.910156 198.875 267.046875 200.074219 267.941406 C 202.5 269.773438 205.632812 270.179688 208.398438 268.878906 C 211.164062 267.578125 213.023438 264.949219 214.214844 262.210938 C 214.824219 260.820312 215.226562 259.351562 215.914062 257.992188 C 216.527344 256.78125 217.320312 255.65625 218.3125 254.726562 C 220.550781 252.621094 223.53125 251.476562 226.445312 250.667969 C 232.683594 248.933594 239.292969 248.496094 245.734375 248.214844 C 249.089844 248.070312 252.417969 247.894531 255.742188 247.371094 C 258.96875 246.863281 262.164062 246.105469 265.265625 245.074219 C 271.386719 243.027344 277.257812 239.878906 281.933594 235.367188 C 286.496094 230.980469 289.839844 225.175781 290.660156 218.839844 C 291.46875 212.625 289.714844 205.894531 284.65625 201.875 C 282.242188 199.957031 279.308594 198.835938 276.292969 198.28125 C 273.214844 197.714844 270.140625 197.800781 267.03125 197.871094 C 264.441406 197.929688 261.710938 197.78125 259.339844 196.628906 C 258.015625 195.984375 256.871094 195.03125 255.925781 193.90625 C 254.929688 192.707031 254.128906 191.375 253.09375 190.203125 C 251 187.824219 248.445312 185.941406 245.621094 184.53125 C 244.226562 183.832031 242.773438 183.292969 241.335938 182.707031 C 239.996094 182.15625 238.941406 181.398438 238.511719 179.964844 C 238.09375 178.582031 238.023438 177.191406 237.21875 175.929688 C 236.527344 174.828125 235.476562 174.058594 234.269531 173.585938 C 233.601562 173.328125 232.910156 173.171875 232.214844 173.003906 C 231.757812 172.894531 231.128906 172.722656 230.839844 172.308594 C 230.246094 171.488281 231.613281 170.023438 231.933594 169.324219 C 233.128906 166.703125 233.144531 163.558594 231.925781 160.949219 C 230.730469 158.386719 228.46875 156.433594 225.910156 155.292969 C 224.523438 154.679688 223.121094 154.214844 221.835938 153.375 C 220.554688 152.539062 219.457031 151.460938 218.707031 150.121094 C 218.078125 149 217.78125 147.785156 217.371094 146.578125 C 216.910156 145.195312 216.332031 143.835938 215.574219 142.582031 C 212.226562 137.035156 205.929688 134.808594 199.753906 134.40625 C 196.511719 134.195312 193.273438 134.5625 190.03125 134.347656 C 186.851562 134.140625 183.703125 133.546875 180.679688 132.527344 C 177.867188 131.582031 175.121094 130.277344 172.492188 128.898438 C 169.765625 127.46875 167.203125 125.742188 164.832031 123.773438 C 162.492188 121.828125 160.328125 119.667969 158.378906 117.332031 C 156.3125 114.867188 154.554688 112.214844 152.203125 110 C 147.363281 105.429688 140.949219 102.671875 134.242188 103.925781 C 131.269531 104.484375 128.183594 105.738281 125.738281 107.542969 C 123.289062 109.351562 120.664062 111.0625 117.660156 111.761719 C 116.246094 112.085938 114.742188 112.203125 113.300781 111.992188 C 111.878906 111.804688 110.160156 112.066406 109.285156 113.332031 C 108.585938 114.351562 108.730469 115.667969 109.53125 116.597656 C 110.503906 117.714844 111.9375 117.761719 113.101562 118.542969 C 115.820312 120.359375 114.226562 123.941406 112.730469 126.027344 C 110.960938 128.496094 108.472656 130.472656 105.734375 131.753906 C 103.261719 132.914062 100.503906 133.632812 97.804688 132.863281 C 96.398438 132.464844 95.136719 131.742188 93.691406 131.433594 C 92.125 131.105469 90.460938 131.113281 88.953125 131.695312 C 86.082031 132.8125 84.699219 135.730469 84.871094 138.699219 C 84.933594 139.863281 85.230469 141 85.464844 142.144531 C 85.722656 143.375 85.90625 144.574219 84.835938 145.476562 C 83.726562 146.40625 83.09375 148.136719 83.972656 149.445312 C 84.871094 150.78125 86.804688 150.691406 88.097656 150.042969 " fill-opacity="1" fill-rule="nonzero"/></g><path fill="#ffffff" d="M 87.527344 148.789062 C 86.695312 149.171875 84.75 149.585938 84.75 148.125 C 84.75 146.886719 86.367188 146.144531 86.976562 145.226562 C 88.273438 143.308594 87.378906 141.074219 87.269531 138.984375 C 87.191406 137.585938 87.589844 136.042969 88.742188 135.148438 C 89.847656 134.296875 91.339844 134.296875 92.636719 134.628906 C 94.058594 134.980469 95.292969 135.789062 96.679688 136.242188 C 98.113281 136.710938 99.632812 136.898438 101.136719 136.816406 C 107.027344 136.496094 112.507812 132.28125 115.203125 127.15625 C 116.5 124.691406 117.382812 121.347656 115.617188 118.867188 C 114.855469 117.796875 113.695312 117.109375 112.464844 116.695312 C 111.550781 116.390625 110.183594 115.988281 110.105469 114.8125 C 109.96875 113.613281 111.632812 113.289062 112.492188 113.304688 C 113.867188 113.339844 115.214844 113.59375 116.601562 113.550781 C 119.746094 113.449219 122.734375 112.464844 125.542969 111.089844 C 126.988281 110.382812 128.359375 109.53125 129.84375 108.898438 C 131.25 108.292969 132.722656 107.84375 134.238281 107.605469 C 137.476562 107.109375 140.746094 107.730469 143.632812 109.265625 C 146.507812 110.800781 148.921875 113.085938 150.988281 115.585938 C 152.988281 118.007812 154.65625 120.695312 156.59375 123.179688 C 160.597656 128.300781 165.304688 133.007812 170.964844 136.273438 C 176.460938 139.441406 182.8125 140.960938 189.121094 141.144531 C 190.773438 141.191406 192.421875 141.152344 194.070312 141.035156 C 195.679688 140.921875 197.28125 140.699219 198.898438 140.621094 C 201.894531 140.480469 205.046875 140.664062 207.832031 141.878906 C 210.734375 143.144531 212.585938 145.511719 213.546875 148.484375 C 214.40625 151.144531 216.011719 153.476562 218.277344 155.136719 C 219.378906 155.941406 220.59375 156.582031 221.847656 157.121094 C 223.136719 157.667969 224.488281 158.066406 225.738281 158.710938 C 228.132812 159.945312 230.160156 161.960938 230.71875 164.675781 C 230.984375 165.953125 230.921875 167.296875 230.449219 168.515625 C 230.050781 169.550781 229.203125 170.589844 229.320312 171.769531 C 229.335938 173.125 230.332031 174.015625 231.523438 174.492188 C 232.832031 175.007812 234.253906 175.324219 235.078125 176.597656 C 235.871094 177.808594 235.71875 179.273438 235.972656 180.632812 C 236.21875 181.976562 236.824219 183.214844 237.832031 184.15625 C 239 185.242188 240.453125 185.722656 241.886719 186.332031 C 243.300781 186.9375 244.664062 187.683594 245.917969 188.582031 C 247.132812 189.453125 248.242188 190.472656 249.203125 191.621094 C 250.246094 192.847656 251.007812 194.226562 251.859375 195.582031 C 253.515625 198.222656 255.824219 200.359375 258.691406 201.613281 C 261.625 202.890625 264.875 203.222656 268.046875 203.136719 C 271.226562 203.042969 274.496094 203.183594 277.476562 204.425781 C 280.429688 205.644531 282.597656 207.964844 283.4375 211.070312 C 284.296875 214.214844 284.027344 217.648438 282.972656 220.707031 C 280.914062 226.707031 276.046875 231.414062 270.746094 234.664062 C 265.191406 238.070312 258.84375 240.074219 252.425781 241.019531 C 249.109375 241.5 245.761719 241.613281 242.429688 241.90625 C 239.183594 242.1875 235.949219 242.570312 232.746094 243.144531 C 226.660156 244.234375 219.945312 245.925781 215.398438 250.40625 C 213.207031 252.5625 211.765625 255.289062 210.902344 258.222656 C 210.125 260.851562 209.308594 264.09375 206.691406 265.515625 C 205.507812 266.144531 204.152344 266.0625 202.972656 265.460938 C 201.667969 264.796875 200.84375 263.691406 199.949219 262.582031 C 197.984375 260.132812 195.277344 258.59375 192.082031 258.976562 C 188.992188 259.351562 186.417969 261.265625 183.417969 261.976562 C 181.957031 262.324219 180.421875 262.414062 178.953125 262.050781 C 177.535156 261.703125 176.429688 260.839844 175.109375 260.277344 C 172.355469 259.09375 168.75 259.125 166.40625 261.179688 C 165.359375 262.097656 164.710938 263.363281 164.511719 264.738281 C 164.320312 266.136719 164.75 267.601562 164.144531 268.933594 C 163.601562 270.121094 162.398438 270.242188 161.492188 269.378906 C 160.527344 268.441406 160.273438 267.089844 159.867188 265.859375 C 158.847656 262.8125 157.152344 260.34375 154.691406 258.28125 C 153.542969 257.324219 152.28125 256.515625 151.140625 255.554688 C 149.972656 254.574219 149.023438 253.390625 148.390625 251.996094 C 147.042969 249.035156 146.742188 245.695312 145.886719 242.585938 C 145.042969 239.511719 143.703125 236.605469 141.703125 234.109375 C 139.648438 231.554688 137.0625 229.65625 134.433594 227.746094 C 131.960938 225.957031 129.609375 223.910156 127.960938 221.304688 C 126.367188 218.785156 125.488281 215.886719 124.941406 212.96875 C 124.339844 209.808594 124.132812 206.589844 123.496094 203.433594 C 122.824219 200.105469 121.796875 196.835938 120.160156 193.859375 C 118.589844 191.003906 116.496094 188.484375 114.074219 186.316406 C 112.859375 185.222656 111.578125 184.214844 110.410156 183.066406 C 109.261719 181.9375 108.1875 180.722656 107.234375 179.421875 C 105.292969 176.777344 103.894531 173.796875 102.867188 170.691406 C 101.902344 167.789062 101.367188 164.769531 100.472656 161.847656 C 99.433594 158.453125 98.046875 155.035156 95.925781 152.160156 C 94.890625 150.769531 93.621094 149.441406 92.015625 148.730469 C 90.546875 148.074219 88.984375 148.148438 87.527344 148.792969 Z M 87.8125 149.414062 C 90.765625 148.132812 93.25 150.394531 94.792969 152.730469 C 96.433594 155.207031 97.503906 158.054688 98.351562 160.890625 C 99.234375 163.832031 99.78125 166.851562 100.589844 169.816406 C 101.453125 172.96875 102.566406 176.0625 104.183594 178.910156 C 105.8125 181.761719 107.90625 184.304688 110.289062 186.546875 C 111.46875 187.660156 112.675781 188.71875 113.75 189.9375 C 114.820312 191.152344 115.78125 192.460938 116.59375 193.859375 C 118.226562 196.667969 119.207031 199.78125 119.800781 202.960938 C 120.390625 206.109375 120.53125 209.300781 120.964844 212.46875 C 121.378906 215.46875 122.039062 218.476562 123.390625 221.199219 C 124.730469 223.902344 126.726562 226.183594 129.039062 228.09375 C 131.378906 230.03125 134.039062 231.472656 136.460938 233.289062 C 138.929688 235.152344 141.019531 237.421875 142.375 240.226562 C 144.914062 245.460938 144.421875 252.070312 149.148438 256.132812 C 151.460938 258.125 154.324219 259.347656 156.425781 261.617188 C 157.46875 262.746094 158.257812 264.066406 158.839844 265.488281 C 159.351562 266.734375 159.582031 268.121094 160.378906 269.234375 C 161.085938 270.226562 162.355469 271.0625 163.589844 270.496094 C 164.84375 269.925781 165.210938 268.363281 165.253906 267.117188 C 165.300781 265.652344 165.164062 264.324219 165.964844 263.007812 C 166.652344 261.882812 167.800781 261.125 169.050781 260.765625 C 170.503906 260.34375 172.074219 260.40625 173.515625 260.824219 C 175.066406 261.277344 176.28125 262.332031 177.765625 262.914062 C 180.769531 264.09375 184.023438 263.472656 186.921875 262.296875 C 189.640625 261.195312 192.558594 259.71875 195.484375 261.066406 C 196.855469 261.695312 197.941406 262.820312 198.820312 264.027344 C 199.769531 265.328125 200.882812 266.492188 202.347656 267.203125 C 205.085938 268.519531 208.03125 267.5 209.945312 265.289062 C 210.972656 264.101562 211.714844 262.683594 212.277344 261.226562 C 212.855469 259.738281 213.234375 258.183594 213.921875 256.730469 C 216.734375 250.78125 223 248.339844 229.035156 246.984375 C 235.492188 245.535156 242.070312 245.210938 248.644531 244.777344 C 261.296875 243.945312 275.273438 239.316406 282.933594 228.558594 C 286.648438 223.351562 288.582031 216.519531 286.636719 210.246094 C 285.707031 207.25 283.808594 204.691406 281.136719 203.046875 C 278.558594 201.457031 275.53125 200.777344 272.542969 200.539062 C 268.847656 200.25 265.140625 200.851562 261.5 199.960938 C 257.964844 199.09375 255.140625 196.890625 253.246094 193.808594 C 251.539062 191.066406 249.289062 188.71875 246.566406 186.96875 C 245.277344 186.144531 243.910156 185.460938 242.503906 184.871094 C 241.308594 184.375 240.042969 183.992188 239.015625 183.183594 C 237.921875 182.324219 237.355469 181.097656 237.136719 179.746094 C 236.910156 178.363281 236.765625 177 235.851562 175.867188 C 235.003906 174.8125 233.730469 174.269531 232.460938 173.921875 C 231.304688 173.601562 229.929688 173.085938 230.035156 171.652344 C 230.175781 170.449219 231.035156 169.527344 231.394531 168.394531 C 231.792969 167.164062 231.9375 165.855469 231.78125 164.574219 C 231.390625 161.457031 229.296875 158.941406 226.632812 157.425781 C 225.359375 156.699219 223.964844 156.289062 222.632812 155.6875 C 221.519531 155.179688 220.441406 154.566406 219.476562 153.8125 C 218.398438 152.964844 217.476562 151.929688 216.789062 150.738281 C 216.039062 149.449219 215.683594 148.054688 215.164062 146.675781 C 214.101562 143.847656 212.226562 141.449219 209.609375 139.914062 C 206.925781 138.339844 203.785156 137.707031 200.710938 137.539062 C 197.570312 137.367188 194.453125 137.804688 191.3125 137.785156 C 188.011719 137.761719 184.707031 137.378906 181.507812 136.554688 C 175.53125 135.019531 169.9375 131.957031 165.203125 128.027344 C 162.726562 125.972656 160.457031 123.679688 158.375 121.230469 C 156.386719 118.898438 154.714844 116.324219 152.734375 113.988281 C 148.714844 109.230469 143.179688 105.390625 136.726562 105.53125 C 133.488281 105.605469 130.355469 106.664062 127.554688 108.242188 C 124.785156 109.804688 122.21875 111.558594 119.089844 112.339844 C 117.589844 112.714844 116.050781 112.875 114.507812 112.792969 C 113.238281 112.730469 111.949219 112.398438 110.738281 112.957031 C 109.6875 113.453125 109.144531 114.601562 109.699219 115.679688 C 110.351562 116.882812 111.644531 117.0625 112.777344 117.554688 C 114.144531 118.160156 115.203125 119.269531 115.492188 120.757812 C 115.746094 122.085938 115.441406 123.464844 114.945312 124.691406 C 113.871094 127.371094 111.859375 129.671875 109.609375 131.429688 C 107.464844 133.105469 104.902344 134.414062 102.199219 134.859375 C 100.710938 135.105469 99.179688 135.0625 97.714844 134.6875 C 96.210938 134.300781 94.882812 133.457031 93.371094 133.082031 C 90.742188 132.429688 87.808594 133.082031 86.605469 135.742188 C 86.039062 137.007812 85.964844 138.441406 86.183594 139.792969 C 86.359375 140.871094 86.628906 141.9375 86.652344 143.039062 C 86.652344 144.207031 86.269531 145.140625 85.386719 145.921875 C 84.6875 146.535156 84.125 147.273438 84.171875 148.257812 C 84.398438 150.121094 86.511719 150.035156 87.8125 149.414062 " fill-opacity="1" fill-rule="nonzero"/></svg>