<svg xmlns="http://www.w3.org/2000/svg" xmlns:xlink="http://www.w3.org/1999/xlink" width="500" zoomAndPan="magnify" viewBox="0 0 375 374.999991" height="500" preserveAspectRatio="xMidYMid meet" version="1.0"><defs><clipPath id="6b3f1db8fc"><path d="M 0 23.164062 L 375 23.164062 L 375 351.664062 L 0 351.664062 Z M 0 23.164062 " clip-rule="nonzero"/></clipPath><clipPath id="529c50b7e0"><path d="M 113.523438 96.3125 L 261.273438 96.3125 L 261.273438 278.5625 L 113.523438 278.5625 Z M 113.523438 96.3125 " clip-rule="nonzero"/></clipPath></defs><rect x="-37.5" width="450" fill="#ffffff" y="-37.499999" height="449.999989" fill-opacity="1"/><rect x="-37.5" width="450" fill="#ffffff" y="-37.499999" height="449.999989" fill-opacity="1"/><g clip-path="url(#6b3f1db8fc)"><path fill="#fecc02" d="M 280.683594 23.164062 L 94.316406 23.164062 L 0.00390625 187.414062 L 94.316406 351.664062 L 280.683594 351.664062 L 374.996094 187.414062 L 280.683594 23.164062 M 275.550781 342.765625 L 99.449219 342.765625 L 10.265625 187.414062 L 99.449219 32.0625 L 275.550781 32.0625 L 364.734375 187.414062 L 275.550781 342.765625 " fill-opacity="1" fill-rule="nonzero"/></g><path fill="#d40029" d="M 233.324219 256.1875 L 195.007812 256.1875 C 191.390625 256.1875 188.515625 253.21875 188.515625 249.691406 L 188.515625 222.578125 C 188.515625 218.960938 191.484375 216.082031 195.007812 216.082031 L 233.324219 216.082031 C 236.945312 216.082031 239.820312 219.050781 239.820312 222.578125 L 239.820312 249.691406 C 239.820312 253.21875 236.945312 256.1875 233.324219 256.1875 Z M 195.007812 222.488281 L 195.007812 249.597656 L 233.324219 249.597656 L 233.324219 222.488281 Z M 195.007812 222.488281 " fill-opacity="1" fill-rule="nonzero"/><g clip-path="url(#529c50b7e0)"><path fill="#d40029" d="M 261.066406 181.820312 L 257.445312 137.351562 C 257.167969 134.195312 254.570312 131.78125 251.324219 131.78125 C 236.757812 131.78125 229.800781 131.78125 226.460938 131.78125 C 224.511719 111.910156 207.71875 96.3125 187.398438 96.3125 C 167.082031 96.3125 150.289062 111.910156 148.339844 131.78125 C 145 131.78125 137.949219 131.78125 123.382812 131.78125 C 120.230469 131.78125 117.632812 134.195312 117.355469 137.351562 L 113.734375 182.101562 C 113.734375 186.929688 115.496094 191.386719 118.28125 194.820312 L 118.28125 272.34375 C 118.28125 275.777344 120.972656 278.5625 124.3125 278.5625 L 250.582031 278.5625 C 253.921875 278.5625 256.613281 275.777344 256.613281 272.34375 L 256.613281 194.542969 C 259.394531 191.105469 261.066406 186.742188 261.066406 181.820312 Z M 250.953125 138.277344 L 254.476562 182.101562 C 254.476562 189.527344 248.449219 195.5625 241.027344 195.5625 C 233.601562 195.5625 227.574219 189.527344 227.574219 181.820312 L 225.347656 153.875 L 224.976562 147.097656 C 225.808594 144.3125 226.367188 141.34375 226.550781 138.277344 C 233.046875 138.277344 247.984375 138.277344 250.953125 138.277344 Z M 155.761719 158.703125 C 161.886719 167.058594 171.070312 172.816406 181.742188 174.394531 L 181.277344 182.101562 C 181.277344 189.527344 175.246094 195.5625 167.824219 195.5625 C 160.402344 195.5625 154.371094 189.527344 154.371094 182.285156 Z M 219.039062 158.703125 L 220.429688 182.101562 C 220.429688 189.527344 214.398438 195.5625 206.976562 195.5625 C 199.554688 195.5625 193.523438 189.527344 193.523438 181.914062 L 193.058594 174.394531 C 203.730469 172.816406 212.914062 167.058594 219.039062 158.703125 Z M 187.398438 102.8125 C 205.398438 102.8125 220.058594 117.480469 220.058594 135.492188 C 220.058594 153.503906 205.398438 168.265625 187.398438 168.265625 C 169.402344 168.265625 154.742188 153.597656 154.742188 135.585938 C 154.742188 117.574219 169.402344 102.8125 187.398438 102.8125 Z M 123.847656 138.277344 C 126.632812 138.277344 141.847656 138.277344 148.339844 138.277344 C 148.527344 141.34375 149.082031 144.3125 149.917969 147.097656 L 149.546875 153.96875 L 147.320312 182.101562 C 147.320312 189.527344 141.289062 195.5625 133.867188 195.5625 C 126.445312 195.5625 120.230469 189.527344 120.230469 182.378906 Z M 144.539062 272.066406 L 144.539062 222.488281 L 171.628906 222.488281 L 171.628906 272.066406 Z M 178.121094 272.066406 L 178.121094 222.488281 C 178.121094 218.867188 175.152344 215.988281 171.628906 215.988281 L 144.539062 215.988281 C 140.917969 215.988281 138.042969 218.960938 138.042969 222.488281 L 138.042969 272.066406 L 124.867188 272.066406 L 124.867188 200.019531 C 127.558594 201.320312 130.527344 202.15625 133.773438 202.15625 C 141.011719 202.15625 147.320312 198.253906 150.847656 192.589844 C 154.371094 198.253906 160.679688 202.15625 167.824219 202.15625 C 177.472656 202.15625 185.542969 195.285156 187.398438 186.277344 C 189.347656 195.378906 197.328125 202.15625 206.976562 202.15625 C 214.121094 202.15625 220.429688 198.347656 223.953125 192.589844 C 227.480469 198.347656 233.789062 202.15625 241.027344 202.15625 C 244.273438 202.15625 247.335938 201.320312 250.117188 199.925781 L 250.117188 272.066406 Z M 178.121094 272.066406 " fill-opacity="1" fill-rule="nonzero"/></g><path fill="#d40029" d="M 210.871094 141.527344 L 210.222656 141.527344 C 208.089844 132.242188 200.109375 125.09375 190.460938 123.796875 L 190.460938 122.125 C 190.460938 120.359375 188.976562 118.875 187.214844 118.875 C 185.453125 118.875 183.96875 120.359375 183.96875 122.125 L 183.96875 123.796875 C 174.320312 125.09375 166.339844 132.242188 164.207031 141.527344 L 164.019531 141.527344 C 162.257812 141.527344 160.773438 143.015625 160.773438 144.777344 C 160.773438 146.542969 162.257812 148.027344 164.019531 148.027344 L 210.871094 148.027344 C 212.636719 148.027344 214.121094 146.542969 214.121094 144.777344 C 214.121094 143.015625 212.636719 141.527344 210.871094 141.527344 Z M 170.886719 141.527344 C 173.113281 134.9375 179.605469 130.109375 187.121094 130.109375 C 194.636719 130.109375 201.132812 134.9375 203.359375 141.527344 Z M 170.886719 141.527344 " fill-opacity="1" fill-rule="nonzero"/></svg>