<?xml version="1.0" encoding="utf-8"?>
<svg version="1.1" id="Layer_1" x="0px" y="0px" viewBox="2.2 68.753 1907.583 784.305" style="enable-background:new 0 0 1920 1080;" xmlns="http://www.w3.org/2000/svg">
  <style type="text/css">
	.st0{fill:#C62222;}
	.st1{fill:#231F20;}
</style>
  <rect x="1126.278" y="324.566" class="st0" width="340.153" height="253.483" style=""/>
  <path class="st0" d="M 1126.278 324.566 L 1126.278 578.01 L 1466.43 578.01 L 1466.43 324.566 L 1126.278 324.566 Z M 1298.994 551.062 L 1298.49 551.062 L 1298.49 503.534 L 1147.324 503.534 L 1147.324 408.633 L 1298.49 408.633 L 1298.49 362.541 L 1432.182 456.977 L 1298.994 551.062 Z" style=""/>
  <path class="st1" d="M 1717.156 266.126 L 1717.156 266.126 C 1664.697 266.126 1622.178 308.645 1622.178 361.105 L 1622.178 361.105 L 1622.178 551.062 L 1622.178 646.041 L 1717.156 646.041 L 1812.135 646.041 L 1907.114 835.998 L 1907.114 646.041 L 1907.114 551.062 L 1907.114 361.105 L 1907.114 266.126 L 1812.135 266.126 L 1717.156 266.126 Z M 1812.135 551.062 L 1717.156 551.062 L 1717.156 361.105 L 1812.135 361.105 L 1812.135 551.062 Z" style=""/>
  <polygon class="st1" points="292.516 456.084 387.495 456.084 387.495 392.752 292.516 392.752 292.516 329.458 387.495 329.458 387.495 266.126 292.516 266.126 229.223 266.126 229.223 329.458 229.223 392.752 197.537 392.752 102.559 456.084 229.223 456.084" style=""/>
  <path class="st1" d="M 1147.285 266.126 C 1121.074 266.126 1097.31 276.766 1080.147 293.928 C 1062.984 311.13 1052.345 334.856 1052.345 361.066 L 1052.345 551.062 L 957.367 551.062 L 957.367 76.169 L 862.388 76.169 L 862.388 416.749 L 767.448 511.689 L 767.448 416.593 L 672.431 416.593 L 672.431 416.787 L 577.452 511.689 L 577.452 76.169 L 482.473 76.169 L 482.473 551.062 L 197.537 551.062 L 7.58 646.041 L 577.452 646.041 L 672.431 550.945 L 672.431 646.041 L 767.448 646.041 L 767.448 646.002 L 862 551.451 L 862 646.041 L 1052.345 646.041 L 1052.345 835.998 L 1147.324 646.041 L 1527.199 646.041 L 1527.199 266.126 L 1147.285 266.126 Z M 1280.512 362.541 L 1281.016 362.541 L 1281.016 410.07 L 1432.182 410.07 L 1432.182 504.971 L 1281.016 504.971 L 1281.016 551.062 L 1147.324 456.627 L 1280.512 362.541 Z" style=""/>
  <rect x="1047.375" y="76.946" class="st1" width="859.74" height="94.901" style=""/>
  <path class="st1" d="M 675.654 324.566 C 701.476 324.566 722.444 303.986 723.143 278.319 C 723.803 303.986 744.81 324.566 770.632 324.566 C 796.881 324.566 818.16 303.286 818.16 277.038 C 818.16 250.789 796.881 229.509 770.632 229.509 C 744.81 229.509 723.842 250.089 723.143 275.756 C 722.483 250.089 701.476 229.509 675.654 229.509 C 649.404 229.509 628.125 250.789 628.125 277.038 C 628.125 303.286 649.404 324.566 675.654 324.566 Z" style=""/>
</svg>