<?xml version="1.0" encoding="utf-8"?>
<svg width="900" zoomAndPan="magnify" viewBox="0 0 675 299.999988" height="400" preserveAspectRatio="xMidYMid meet" version="1.0" xmlns="http://www.w3.org/2000/svg">
  <defs>
    <clipPath id="id1">
      <path d="M 57.464844 48 L 365.714844 48 L 365.714844 192 L 57.464844 192 Z M 57.464844 48 " clip-rule="nonzero"/>
    </clipPath>
    <clipPath id="id2">
      <path d="M 57.464844 209 L 357 209 L 357 233 L 57.464844 233 Z M 57.464844 209 " clip-rule="nonzero"/>
    </clipPath>
    <clipPath id="id3">
      <path d="M 59 240 L 72 240 L 72 254.980469 L 59 254.980469 Z M 59 240 " clip-rule="nonzero"/>
    </clipPath>
    <clipPath id="id4">
      <path d="M 74 240 L 77 240 L 77 254.980469 L 74 254.980469 Z M 74 240 " clip-rule="nonzero"/>
    </clipPath>
    <clipPath id="id5">
      <path d="M 80 240 L 93 240 L 93 254.980469 L 80 254.980469 Z M 80 240 " clip-rule="nonzero"/>
    </clipPath>
    <clipPath id="id6">
      <path d="M 95 240 L 110 240 L 110 254.980469 L 95 254.980469 Z M 95 240 " clip-rule="nonzero"/>
    </clipPath>
    <clipPath id="id7">
      <path d="M 112 240 L 126 240 L 126 254.980469 L 112 254.980469 Z M 112 240 " clip-rule="nonzero"/>
    </clipPath>
    <clipPath id="id8">
      <path d="M 127 240 L 143 240 L 143 254.980469 L 127 254.980469 Z M 127 240 " clip-rule="nonzero"/>
    </clipPath>
    <clipPath id="id9">
      <path d="M 145 240 L 160 240 L 160 254.980469 L 145 254.980469 Z M 145 240 " clip-rule="nonzero"/>
    </clipPath>
    <clipPath id="id10">
      <path d="M 168 240 L 184 240 L 184 254.980469 L 168 254.980469 Z M 168 240 " clip-rule="nonzero"/>
    </clipPath>
    <clipPath id="id11">
      <path d="M 186 240 L 198 240 L 198 254.980469 L 186 254.980469 Z M 186 240 " clip-rule="nonzero"/>
    </clipPath>
    <clipPath id="id12">
      <path d="M 205 240 L 217 240 L 217 254.980469 L 205 254.980469 Z M 205 240 " clip-rule="nonzero"/>
    </clipPath>
    <clipPath id="id13">
      <path d="M 217 240 L 233 240 L 233 254.980469 L 217 254.980469 Z M 217 240 " clip-rule="nonzero"/>
    </clipPath>
    <clipPath id="id14">
      <path d="M 233 240 L 246 240 L 246 254.980469 L 233 254.980469 Z M 233 240 " clip-rule="nonzero"/>
    </clipPath>
    <clipPath id="id15">
      <path d="M 249 240 L 263 240 L 263 254.980469 L 249 254.980469 Z M 249 240 " clip-rule="nonzero"/>
    </clipPath>
    <clipPath id="id16">
      <path d="M 265 240 L 268 240 L 268 254.980469 L 265 254.980469 Z M 265 240 " clip-rule="nonzero"/>
    </clipPath>
    <clipPath id="id17">
      <path d="M 276 240 L 292 240 L 292 254.980469 L 276 254.980469 Z M 276 240 " clip-rule="nonzero"/>
    </clipPath>
    <clipPath id="id18">
      <path d="M 293 240 L 306 240 L 306 254.980469 L 293 254.980469 Z M 293 240 " clip-rule="nonzero"/>
    </clipPath>
    <clipPath id="id19">
      <path d="M 307 240 L 323 240 L 323 254.980469 L 307 254.980469 Z M 307 240 " clip-rule="nonzero"/>
    </clipPath>
    <clipPath id="id20">
      <path d="M 324 240 L 337 240 L 337 254.980469 L 324 254.980469 Z M 324 240 " clip-rule="nonzero"/>
    </clipPath>
    <clipPath id="id21">
      <path d="M 339 240 L 343 240 L 343 254.980469 L 339 254.980469 Z M 339 240 " clip-rule="nonzero"/>
    </clipPath>
    <clipPath id="id22">
      <path d="M 344 240 L 360 240 L 360 254.980469 L 344 254.980469 Z M 344 240 " clip-rule="nonzero"/>
    </clipPath>
  </defs>
  <path stroke-linecap="butt" stroke-linejoin="miter" d="M 236.276 145.802 L 476.284 145.802" stroke-width="1" stroke-opacity="1" stroke-miterlimit="4" style="stroke: rgb(73, 70, 70);" transform="matrix(0, 1, -1, 0, 502.082001, -210.477997)"/>
  <g clip-path="url(#id1)" style="" transform="matrix(0.807933, 0, 0, 0.807933, 15.930714, 24.323097)">
    <path d="M 277.230469 165.476562 L 277.230469 165.703125 C 277.230469 180.589844 266.394531 191.53125 248.78125 191.53125 C 234.554688 191.53125 224.730469 185.890625 217.957031 177.882812 L 229.925781 166.492188 C 235.34375 172.582031 240.992188 175.964844 249.007812 175.964844 C 255.554688 175.964844 260.183594 172.242188 260.183594 166.378906 C 260.097656 166.222656 261.460938 156.117188 244.714844 156.117188 L 237.492188 156.117188 L 234.78125 145.058594 L 260.132812 119.582031 L 249.972656 126.113281 L 222.589844 126.113281 L 222.589844 111.226562 L 275.988281 111.226562 L 275.988281 124.308594 L 256.007812 143.371094 C 266.730469 145.175781 277.230469 150.8125 277.230469 165.476562 M 227.667969 75.125 C 227.667969 67.976562 232.796875 62.222656 239.996094 62.222656 L 248.109375 62.222656 L 245.984375 63.28125 C 246.082031 82.875 245.597656 85.34375 246.847656 88.207031 L 240.085938 88.203125 C 232.886719 88.203125 227.667969 82.359375 227.667969 75.214844 Z M 239.996094 91.488281 L 247.199219 91.488281 L 247.199219 88.894531 C 247.726562 89.804688 248.433594 90.515625 249.472656 91.007812 C 251.765625 92.097656 250.101562 91.414062 315.8125 91.613281 L 315.8125 58.941406 L 312.347656 58.941406 L 312.347656 88.152344 C 312.347656 88.152344 252.261719 88.382812 251.121094 87.871094 C 250.128906 87.425781 249.769531 86.402344 249.601562 85.316406 C 249.339844 83.550781 249.5 83.519531 249.453125 58.941406 L 240.085938 58.941406 C 230.503906 58.941406 223.980469 66.539062 223.980469 75.214844 L 223.980469 75.304688 C 223.980469 83.980469 230.414062 91.488281 239.996094 91.488281 M 341.355469 55.476562 L 333.761719 55.476562 C 333.929688 52.964844 332.765625 48.277344 337.882812 48.277344 L 340.328125 48.277344 L 340.328125 50.691406 C 337.960938 50.867188 336.597656 50.117188 336.597656 52.007812 L 336.597656 52.808594 L 341.355469 52.808594 Z M 350.132812 91.96875 C 349.210938 91.96875 348.269531 91.839844 347.316406 91.578125 L 348.226562 88.246094 C 349.796875 88.691406 351.800781 88.71875 352.625 87.316406 C 353.589844 85.65625 353.246094 85.070312 353.296875 58.941406 L 356.761719 58.941406 C 356.664062 83.332031 357 84.011719 356.4375 86.839844 C 355.773438 90.148438 353.769531 91.96875 350.132812 91.96875 M 249.453125 55.476562 L 245.984375 55.476562 L 245.984375 52.015625 L 249.453125 52.015625 Z M 325.738281 67.425781 C 327.363281 64.253906 330.777344 62.492188 334.269531 62.453125 L 334.269531 62.449219 L 339.871094 62.449219 L 337.890625 63.433594 L 337.890625 78.984375 C 335.164062 78.902344 333.246094 79.242188 330.71875 78.441406 C 327.269531 77.355469 324.933594 74.699219 324.933594 70.84375 C 324.933594 69.605469 325.203125 68.464844 325.738281 67.425781 M 325.738281 79.699219 C 330.25 82.917969 336.402344 82.382812 336.726562 82.445312 L 337.890625 80.003906 C 337.703125 82.371094 338.542969 85.679688 336.332031 87.335938 C 334.460938 88.734375 331.128906 88.691406 329.074219 88.203125 C 328.222656 88 327.246094 87.652344 326.148438 87.164062 L 325.066406 90.496094 C 327.261719 91.308594 329.363281 91.96875 331.695312 91.96875 C 335.074219 91.96875 337.527344 91.167969 339.0625 89.566406 C 340.589844 87.964844 341.355469 85.808594 341.355469 83.09375 L 341.355469 58.941406 C 337.089844 59.078125 333.855469 58.511719 329.960938 59.851562 C 319.53125 63.441406 319.320312 75.125 325.738281 79.699219 M 242.519531 55.476562 L 239.050781 55.476562 L 239.050781 52.015625 L 242.519531 52.015625 Z M 206.640625 58.90625 L 210.222656 58.90625 L 210.222656 91.421875 L 207.292969 91.421875 L 184.238281 62.171875 L 186.277344 66.914062 L 186.277344 91.421875 L 182.695312 91.421875 L 182.695312 58.90625 L 186.136719 58.90625 L 208.148438 86.878906 L 206.640625 82.886719 Z M 71.460938 91.652344 L 57.464844 58.90625 L 61.554688 58.90625 C 61.765625 59.410156 72.917969 86.394531 74.050781 89.132812 L 73.695312 85.558594 L 84.757812 58.90625 L 88.707031 58.90625 L 74.714844 91.652344 Z M 133.480469 58.90625 L 137.152344 58.90625 L 137.152344 91.417969 L 133.480469 91.417969 Z M 172.871094 75.253906 C 172.871094 82.640625 167.574219 88.585938 160.132812 88.585938 C 152.695312 88.585938 147.300781 82.546875 147.300781 75.164062 L 147.300781 75.070312 C 147.300781 67.683594 152.601562 61.738281 160.039062 61.738281 C 167.480469 61.738281 172.871094 67.777344 172.871094 75.164062 Z M 160.132812 58.347656 C 150.230469 58.347656 143.488281 66.199219 143.488281 75.164062 L 143.488281 75.253906 C 143.488281 84.21875 150.136719 91.976562 160.039062 91.976562 C 169.945312 91.976562 176.6875 84.128906 176.6875 75.164062 L 176.6875 75.070312 C 176.6875 66.105469 170.035156 58.347656 160.132812 58.347656 M 127.417969 82.59375 L 127.417969 82.6875 C 127.417969 88.257812 122.769531 91.882812 116.308594 91.882812 C 111.144531 91.882812 106.914062 90.164062 103.011719 86.679688 L 105.289062 83.988281 C 108.683594 87.050781 111.9375 88.585938 116.449219 88.585938 C 120.816406 88.585938 123.699219 86.265625 123.699219 83.058594 L 123.699219 82.964844 C 123.699219 73.890625 104.3125 79.878906 104.3125 67.40625 L 104.3125 67.3125 C 104.3125 62.203125 108.820312 58.441406 115.007812 58.441406 C 119.746094 58.441406 123.140625 59.789062 126.441406 62.4375 L 124.304688 65.269531 C 116.925781 59.261719 107.984375 61.5625 107.984375 66.988281 L 107.984375 67.082031 C 107.984375 70.144531 109.65625 71.863281 116.820312 73.398438 C 124.074219 74.976562 127.417969 77.625 127.417969 82.59375 M 97.371094 91.421875 L 93.699219 91.421875 L 93.699219 58.90625 L 97.371094 58.90625 Z M 311.136719 95.074219 L 314.605469 95.074219 L 314.605469 98.539062 L 311.136719 98.539062 Z M 304.203125 95.074219 L 307.671875 95.074219 L 307.671875 98.539062 L 304.203125 98.539062 Z M 86.53125 175.175781 L 116.664062 175.175781 L 116.664062 190.179688 L 58.179688 190.179688 L 58.179688 176.417969 C 87.402344 151.59375 98.148438 146.742188 98.148438 135.925781 C 98.148438 129.273438 93.742188 125.664062 87.535156 125.664062 C 81.4375 125.664062 77.261719 129.042969 71.390625 136.261719 L 59.195312 126.453125 C 66.988281 115.851562 74.550781 110.097656 88.664062 110.097656 C 105.035156 110.097656 115.875 119.683594 115.875 134.460938 L 115.875 134.683594 C 115.875 153.210938 101.859375 159.183594 77.828125 178.570312 L 74.472656 181.15625 Z M 347.539062 150.925781 C 347.539062 164.460938 337.828125 175.515625 323.828125 175.515625 C 309.828125 175.515625 299.894531 164.234375 299.894531 150.699219 L 299.894531 150.476562 C 299.894531 136.941406 309.605469 125.886719 323.601562 125.886719 C 337.601562 125.886719 347.539062 137.167969 347.539062 150.699219 Z M 323.828125 109.871094 C 299.441406 109.871094 281.714844 128.257812 281.714844 150.699219 L 281.714844 150.925781 C 281.714844 173.371094 299.214844 191.53125 323.601562 191.53125 C 347.988281 191.53125 365.714844 173.144531 365.714844 150.699219 L 365.714844 150.476562 C 365.714844 128.03125 348.214844 109.871094 323.828125 109.871094 " fill-opacity="1" fill-rule="nonzero" style="fill: rgb(73, 70, 70);"/>
  </g>
  <path d="M 148.356 108.898 L 151.591 111.997 L 148.486 115.229 L 145.254 112.126" fill-opacity="1" fill-rule="nonzero" style="fill: rgb(73, 70, 70);"/>
  <path d="M 155.757 112.126 L 158.989 115.229 L 162.094 111.997 L 158.859 108.898" fill-opacity="1" fill-rule="nonzero" style="fill: rgb(73, 70, 70);"/>
  <path d="M 151.203 116.197 L 153.722 118.612 L 156.136 116.096 L 153.621 113.682" fill-opacity="1" fill-rule="nonzero" style="fill: rgb(73, 70, 70);"/>
  <path d="M 160.434 117.58 L 162.953 119.994 L 165.367 117.479 L 162.849 115.064" fill-opacity="1" fill-rule="nonzero" style="fill: rgb(73, 70, 70);"/>
  <path d="M 147.088 120.045 L 149.603 122.459 L 152.02 119.944 L 149.505 117.529" fill-opacity="1" fill-rule="nonzero" style="fill: rgb(73, 70, 70);"/>
  <path d="M 155.536 120.338 L 158.052 122.752 L 160.469 120.237 L 157.951 117.823" fill-opacity="1" fill-rule="nonzero" style="fill: rgb(73, 70, 70);"/>
  <path d="M 152.229 123.229 L 154.002 124.927 L 155.7 123.16 L 153.93 121.458" fill-opacity="1" fill-rule="nonzero" style="fill: rgb(73, 70, 70);"/>
  <path d="M 158.91 124.564 L 160.684 126.262 L 162.382 124.491 L 160.611 122.793" fill-opacity="1" fill-rule="nonzero" style="fill: rgb(73, 70, 70);"/>
  <path d="M 173.503 111.104 L 178.995 110.097 L 180.001 115.585 L 174.507 116.595 Z M 173.503 111.104" fill-opacity="1" fill-rule="nonzero" style="fill: rgb(73, 70, 70);"/>
  <path d="M 166.333 113.404 L 170.739 112.596 L 171.547 117.002 L 167.138 117.81 Z M 166.333 113.404" fill-opacity="1" fill-rule="nonzero" style="fill: rgb(73, 70, 70);"/>
  <path d="M 174.851 119.543 L 179.26 118.732 L 180.068 123.137 L 175.659 123.945 Z M 174.851 119.543" fill-opacity="1" fill-rule="nonzero" style="fill: rgb(73, 70, 70);"/>
  <path d="M 168.776 120.187 L 172.206 119.559 L 172.834 122.986 L 169.4 123.614 Z M 168.776 120.187" fill-opacity="1" fill-rule="nonzero" style="fill: rgb(73, 70, 70);"/>
  <path d="M 175.45 126.701 L 178.884 126.073 L 179.512 129.5 L 176.079 130.131 Z M 175.45 126.701" fill-opacity="1" fill-rule="nonzero" style="fill: rgb(73, 70, 70);"/>
  <path d="M 163.631 121.582 L 167.065 120.95 L 167.693 124.381 L 164.259 125.009 Z M 163.631 121.582" fill-opacity="1" fill-rule="nonzero" style="fill: rgb(73, 70, 70);"/>
  <path d="M 169.861 126.073 L 173.292 125.444 L 173.92 128.872 L 170.489 129.503 Z M 169.861 126.073" fill-opacity="1" fill-rule="nonzero" style="fill: rgb(73, 70, 70);"/>
  <path d="M 165.487 126.486 L 167.901 126.044 L 168.343 128.455 L 165.929 128.9 Z M 165.487 126.486" fill-opacity="1" fill-rule="nonzero" style="fill: rgb(73, 70, 70);"/>
  <path d="M 170.126 131.476 L 172.541 131.034 L 172.979 133.445 L 170.565 133.884 Z M 170.126 131.476" fill-opacity="1" fill-rule="nonzero" style="fill: rgb(73, 70, 70);"/>
  <path d="M 189.842 129.086 L 187.44 134.127 L 192.487 136.522 L 194.885 131.485" fill-opacity="1" fill-rule="nonzero" style="fill: rgb(73, 70, 70);"/>
  <path d="M 182.681 126.757 L 180.756 130.8 L 184.802 132.722 L 186.727 128.679" fill-opacity="1" fill-rule="nonzero" style="fill: rgb(73, 70, 70);"/>
  <path d="M 185.991 136.715 L 184.066 140.76 L 188.115 142.682 L 190.041 138.64" fill-opacity="1" fill-rule="nonzero" style="fill: rgb(73, 70, 70);"/>
  <path d="M 180.689 133.685 L 179.19 136.831 L 182.343 138.33 L 183.842 135.181" fill-opacity="1" fill-rule="nonzero" style="fill: rgb(73, 70, 70);"/>
  <path d="M 182.29 142.872 L 180.79 146.018 L 183.94 147.517 L 185.442 144.368" fill-opacity="1" fill-rule="nonzero" style="fill: rgb(73, 70, 70);"/>
  <path d="M 175.703 131.81 L 174.201 134.957 L 177.354 136.456 L 178.853 133.306" fill-opacity="1" fill-rule="nonzero" style="fill: rgb(73, 70, 70);"/>
  <path d="M 178.127 139.094 L 176.625 142.241 L 179.777 143.74 L 181.276 140.59" fill-opacity="1" fill-rule="nonzero" style="fill: rgb(73, 70, 70);"/>
  <path d="M 174.336 136.872 L 173.279 139.088 L 175.495 140.142 L 176.552 137.926" fill-opacity="1" fill-rule="nonzero" style="fill: rgb(73, 70, 70);"/>
  <path d="M 174.119 145.832 L 175.17 143.62 L 177.385 144.674 L 176.334 146.889 Z M 174.119 145.832" fill-opacity="1" fill-rule="nonzero" style="fill: rgb(73, 70, 70);"/>
  <path d="M 192.559 153.217 L 187.661 155.9 L 190.35 160.795 L 195.248 158.109" fill-opacity="1" fill-rule="nonzero" style="fill: rgb(73, 70, 70);"/>
  <path d="M 188.119 147.145 L 184.189 149.297 L 186.345 153.223 L 190.274 151.068" fill-opacity="1" fill-rule="nonzero" style="fill: rgb(73, 70, 70);"/>
  <path d="M 184.972 157.156 L 181.04 159.308 L 183.198 163.234 L 187.124 161.082" fill-opacity="1" fill-rule="nonzero" style="fill: rgb(73, 70, 70);"/>
  <path d="M 182.447 151.598 L 179.386 153.274 L 181.065 156.329 L 184.126 154.653" fill-opacity="1" fill-rule="nonzero" style="fill: rgb(73, 70, 70);"/>
  <path d="M 178.363 159.984 L 175.302 161.659 L 176.981 164.714 L 180.042 163.039" fill-opacity="1" fill-rule="nonzero" style="fill: rgb(73, 70, 70);"/>
  <path d="M 179.5 147.161 L 176.438 148.837 L 178.117 151.895 L 181.179 150.219" fill-opacity="1" fill-rule="nonzero" style="fill: rgb(73, 70, 70);"/>
  <path d="M 177.199 154.486 L 174.138 156.162 L 175.817 159.217 L 178.875 157.541" fill-opacity="1" fill-rule="nonzero" style="fill: rgb(73, 70, 70);"/>
  <path d="M 175.422 150.468 L 173.27 151.649 L 174.453 153.798 L 176.602 152.621" fill-opacity="1" fill-rule="nonzero" style="fill: rgb(73, 70, 70);"/>
  <path d="M 172.149 156.436 L 169.997 157.617 L 171.177 159.766 L 173.33 158.589" fill-opacity="1" fill-rule="nonzero" style="fill: rgb(73, 70, 70);"/>
  <path d="M 174.396 179.21 L 175.081 173.671 L 180.623 174.356 L 179.941 179.898 Z M 174.396 179.21" fill-opacity="1" fill-rule="nonzero" style="fill: rgb(73, 70, 70);"/>
  <path d="M 175.593 170.752 L 176.142 166.308 L 180.588 166.86 L 180.039 171.301 Z M 175.593 170.752" fill-opacity="1" fill-rule="nonzero" style="fill: rgb(73, 70, 70);"/>
  <path d="M 167.175 177.032 L 167.725 172.589 L 172.171 173.138 L 171.622 177.581 Z M 167.175 177.032" fill-opacity="1" fill-rule="nonzero" style="fill: rgb(73, 70, 70);"/>
  <path d="M 169.492 170.196 L 169.918 166.737 L 173.383 167.167 L 172.954 170.626 Z M 169.492 170.196" fill-opacity="1" fill-rule="nonzero" style="fill: rgb(73, 70, 70);"/>
  <path d="M 161.267 174.605 L 161.694 171.146 L 165.156 171.576 L 164.73 175.035 Z M 161.267 174.605" fill-opacity="1" fill-rule="nonzero" style="fill: rgb(73, 70, 70);"/>
  <path d="M 169.697 164.866 L 170.123 161.407 L 173.588 161.836 L 173.159 165.298 Z M 169.697 164.866" fill-opacity="1" fill-rule="nonzero" style="fill: rgb(73, 70, 70);"/>
  <path d="M 163.543 169.458 L 163.969 165.999 L 167.434 166.428 L 167.005 169.887 Z M 163.543 169.458" fill-opacity="1" fill-rule="nonzero" style="fill: rgb(73, 70, 70);"/>
  <path d="M 165.613 164.276 L 165.913 161.842 L 168.346 162.142 L 168.047 164.576 Z M 165.613 164.276" fill-opacity="1" fill-rule="nonzero" style="fill: rgb(73, 70, 70);"/>
  <path d="M 159.456 167.195 L 159.756 164.762 L 162.192 165.065 L 161.892 167.498 Z M 159.456 167.195" fill-opacity="1" fill-rule="nonzero" style="fill: rgb(73, 70, 70);"/>
  <path d="M 158.566 184.562 L 154.469 180.766 L 150.67 184.856 L 154.763 188.653" fill-opacity="1" fill-rule="nonzero" style="fill: rgb(73, 70, 70);"/>
  <path d="M 157.812 106.395 L 153.715 102.595 L 149.915 106.685 L 154.009 110.482" fill-opacity="1" fill-rule="nonzero" style="fill: rgb(73, 70, 70);"/>
  <path d="M 162.934 178.437 L 159.648 175.388 L 156.6 178.67 L 159.885 181.716" fill-opacity="1" fill-rule="nonzero" style="fill: rgb(73, 70, 70);"/>
  <path d="M 152.431 178.61 L 149.145 175.565 L 146.097 178.844 L 149.382 181.889" fill-opacity="1" fill-rule="nonzero" style="fill: rgb(73, 70, 70);"/>
  <path d="M 156.915 174.463 L 154.356 172.09 L 151.983 174.646 L 154.539 177.016" fill-opacity="1" fill-rule="nonzero" style="fill: rgb(73, 70, 70);"/>
  <path d="M 147.662 173.236 L 145.106 170.865 L 142.732 173.419 L 145.289 175.792" fill-opacity="1" fill-rule="nonzero" style="fill: rgb(73, 70, 70);"/>
  <path d="M 160.198 170.272 L 157.641 167.899 L 155.268 170.452 L 157.824 172.825" fill-opacity="1" fill-rule="nonzero" style="fill: rgb(73, 70, 70);"/>
  <path d="M 152.516 170.398 L 149.96 168.025 L 147.586 170.581 L 150.143 172.952" fill-opacity="1" fill-rule="nonzero" style="fill: rgb(73, 70, 70);"/>
  <path d="M 155.77 167.451 L 153.971 165.781 L 152.304 167.58 L 154.1 169.246" fill-opacity="1" fill-rule="nonzero" style="fill: rgb(73, 70, 70);"/>
  <path d="M 149.07 166.226 L 147.271 164.56 L 145.601 166.356 L 147.4 168.025" fill-opacity="1" fill-rule="nonzero" style="fill: rgb(73, 70, 70);"/>
  <path d="M 128.13 175.552 L 133.608 174.451 L 134.704 179.923 L 129.225 181.021 Z M 128.13 175.552" fill-opacity="1" fill-rule="nonzero" style="fill: rgb(73, 70, 70);"/>
  <path d="M 136.562 173.996 L 140.956 173.116 L 141.833 177.506 L 137.44 178.386 Z M 136.562 173.996" fill-opacity="1" fill-rule="nonzero" style="fill: rgb(73, 70, 70);"/>
  <path d="M 127.947 167.997 L 132.34 167.116 L 133.22 171.506 L 128.827 172.387 Z M 127.947 167.997" fill-opacity="1" fill-rule="nonzero" style="fill: rgb(73, 70, 70);"/>
  <path d="M 135.174 168.035 L 138.595 167.35 L 139.28 170.768 L 135.859 171.452 Z M 135.174 168.035" fill-opacity="1" fill-rule="nonzero" style="fill: rgb(73, 70, 70);"/>
  <path d="M 140.293 166.554 L 143.714 165.866 L 144.399 169.287 L 140.978 169.972 Z M 140.293 166.554" fill-opacity="1" fill-rule="nonzero" style="fill: rgb(73, 70, 70);"/>
  <path d="M 133.987 162.168 L 137.408 161.48 L 138.093 164.897 L 134.672 165.585 Z M 133.987 162.168" fill-opacity="1" fill-rule="nonzero" style="fill: rgb(73, 70, 70);"/>
  <path d="M 139.57 162.496 L 141.978 162.013 L 142.458 164.418 L 140.053 164.901 Z M 139.57 162.496" fill-opacity="1" fill-rule="nonzero" style="fill: rgb(73, 70, 70);"/>
  <path d="M 134.855 157.585 L 137.26 157.102 L 137.743 159.507 L 135.335 159.99 Z M 134.855 157.585" fill-opacity="1" fill-rule="nonzero" style="fill: rgb(73, 70, 70);"/>
  <path d="M 118.068 162.218 L 120.385 157.14 L 115.301 154.827 L 112.984 159.902" fill-opacity="1" fill-rule="nonzero" style="fill: rgb(73, 70, 70);"/>
  <path d="M 125.267 164.427 L 127.123 160.353 L 123.045 158.497 L 121.186 162.572" fill-opacity="1" fill-rule="nonzero" style="fill: rgb(73, 70, 70);"/>
  <path d="M 121.789 154.524 L 123.648 150.449 L 119.567 148.594 L 117.712 152.668" fill-opacity="1" fill-rule="nonzero" style="fill: rgb(73, 70, 70);"/>
  <path d="M 123.964 156.029 L 125.409 152.854 L 128.584 154.303 L 127.139 157.478 Z M 123.964 156.029" fill-opacity="1" fill-rule="nonzero" style="fill: rgb(73, 70, 70);"/>
  <path d="M 131.393 165.399 L 132.838 162.228 L 129.663 160.785 L 128.215 163.957" fill-opacity="1" fill-rule="nonzero" style="fill: rgb(73, 70, 70);"/>
  <path d="M 122.222 146.864 L 123.667 143.692 L 126.839 145.141 L 125.393 148.313 Z M 122.222 146.864" fill-opacity="1" fill-rule="nonzero" style="fill: rgb(73, 70, 70);"/>
  <path d="M 128.991 157.815 L 130.437 154.641 L 133.608 156.092 L 132.163 159.264 Z M 128.991 157.815" fill-opacity="1" fill-rule="nonzero" style="fill: rgb(73, 70, 70);"/>
  <path d="M 126.444 150.579 L 127.89 147.407 L 131.065 148.856 L 129.616 152.027 Z M 126.444 150.579" fill-opacity="1" fill-rule="nonzero" style="fill: rgb(73, 70, 70);"/>
  <path d="M 133.444 154.173 L 134.461 151.942 L 132.226 150.926 L 131.21 153.157" fill-opacity="1" fill-rule="nonzero" style="fill: rgb(73, 70, 70);"/>
  <path d="M 132.491 147.435 L 133.511 145.201 L 131.276 144.185 L 130.257 146.419" fill-opacity="1" fill-rule="nonzero" style="fill: rgb(73, 70, 70);"/>
  <path d="M 114.95 138.132 L 119.804 135.37 L 117.033 130.522 L 112.182 133.284" fill-opacity="1" fill-rule="nonzero" style="fill: rgb(73, 70, 70);"/>
  <path d="M 119.492 144.134 L 123.386 141.916 L 121.164 138.027 L 117.273 140.246" fill-opacity="1" fill-rule="nonzero" style="fill: rgb(73, 70, 70);"/>
  <path d="M 122.474 134.07 L 126.369 131.854 L 124.147 127.963 L 120.252 130.182" fill-opacity="1" fill-rule="nonzero" style="fill: rgb(73, 70, 70);"/>
  <path d="M 125.09 139.586 L 128.12 137.86 L 126.394 134.83 L 123.361 136.557" fill-opacity="1" fill-rule="nonzero" style="fill: rgb(73, 70, 70);"/>
  <path d="M 129.035 131.135 L 132.065 129.408 L 130.336 126.382 L 127.306 128.108" fill-opacity="1" fill-rule="nonzero" style="fill: rgb(73, 70, 70);"/>
  <path d="M 128.111 143.973 L 131.14 142.247 L 129.414 139.217 L 126.381 140.944" fill-opacity="1" fill-rule="nonzero" style="fill: rgb(73, 70, 70);"/>
  <path d="M 130.288 136.614 L 133.321 134.887 L 131.592 131.857 L 128.562 133.587" fill-opacity="1" fill-rule="nonzero" style="fill: rgb(73, 70, 70);"/>
  <path d="M 132.131 140.596 L 134.265 139.384 L 133.047 137.254 L 130.913 138.466" fill-opacity="1" fill-rule="nonzero" style="fill: rgb(73, 70, 70);"/>
  <path d="M 135.306 134.578 L 137.44 133.363 L 136.222 131.233 L 134.088 132.448" fill-opacity="1" fill-rule="nonzero" style="fill: rgb(73, 70, 70);"/>
  <path d="M 126.53 116.784 L 127.123 111.236 L 132.674 111.83 L 132.084 117.378 Z M 126.53 116.784" fill-opacity="1" fill-rule="nonzero" style="fill: rgb(73, 70, 70);"/>
  <path d="M 126.697 124.302 L 127.17 119.852 L 131.63 120.329 L 131.153 124.779 Z M 126.697 124.302" fill-opacity="1" fill-rule="nonzero" style="fill: rgb(73, 70, 70);"/>
  <path d="M 135.007 117.883 L 135.483 113.433 L 139.939 113.909 L 139.463 118.362 Z M 135.007 117.883" fill-opacity="1" fill-rule="nonzero" style="fill: rgb(73, 70, 70);"/>
  <path d="M 133.902 123.892 L 134.271 120.423 L 137.743 120.796 L 137.37 124.264 Z M 133.902 123.892" fill-opacity="1" fill-rule="nonzero" style="fill: rgb(73, 70, 70);"/>
  <path d="M 142.041 119.331 L 142.414 115.863 L 145.882 116.235 L 145.513 119.701 Z M 142.041 119.331" fill-opacity="1" fill-rule="nonzero" style="fill: rgb(73, 70, 70);"/>
  <path d="M 133.779 129.21 L 134.148 125.744 L 137.617 126.117 L 137.247 129.582 Z M 133.779 129.21" fill-opacity="1" fill-rule="nonzero" style="fill: rgb(73, 70, 70);"/>
  <path d="M 139.857 124.513 L 140.23 121.048 L 143.698 121.421 L 143.329 124.886 Z M 139.857 124.513" fill-opacity="1" fill-rule="nonzero" style="fill: rgb(73, 70, 70);"/>
  <path d="M 139.015 128.825 L 139.277 126.385 L 141.716 126.647 L 141.454 129.083 Z M 139.015 128.825" fill-opacity="1" fill-rule="nonzero" style="fill: rgb(73, 70, 70);"/>
  <path d="M 145.121 125.795 L 145.38 123.355 L 147.823 123.617 L 147.564 126.054 Z M 145.121 125.795" fill-opacity="1" fill-rule="nonzero" style="fill: rgb(73, 70, 70);"/>
  <path d="M 171.477 149.051 C 168.555 147.366 164.487 146.877 160.27 148.42 C 158.427 149.118 156.581 150.336 155.025 151.529 C 154.047 145.58 154.523 140.057 154.75 137.346 C 154.754 137.33 154.769 137.324 154.785 137.333 C 156.89 138.655 156.3 142.361 155.858 143.421 C 155.849 143.44 155.88 143.456 155.896 143.437 C 158.519 140.338 157.237 136.913 156.698 136.045 C 156.6 135.891 157.193 136.364 157.682 136.989 C 159.516 139.328 158.667 141.95 158.872 141.89 C 158.878 141.887 158.885 141.89 158.885 141.884 C 160.106 139.489 159.715 136.456 157.206 134.262 C 157.092 134.164 157.54 134.313 157.682 134.363 C 159.819 135.105 160.933 137.308 160.917 139.274 C 160.917 139.703 162.363 135.582 158.872 133.486 C 158.219 133.095 157.55 132.88 157.111 132.826 C 156.77 132.792 158.979 132.457 160.532 133.511 C 161.466 134.139 161.709 134.903 161.687 134.688 C 161.416 131.927 158.165 130.838 156.193 131.665 C 155.984 131.769 156.969 130.311 158.872 130.425 C 159.238 130.444 159.579 130.522 159.847 130.652 C 159.866 130.661 159.885 130.636 159.873 130.62 C 158.433 128.976 156.07 128.941 154.813 130.844 C 154.807 130.857 154.788 130.857 154.779 130.844 C 154.302 129.992 153.905 128.9 153.734 127.868 C 153.693 127.606 153.605 129.143 152.652 130.844 C 152.642 130.857 152.626 130.857 152.617 130.844 C 151.358 128.938 148.997 128.976 147.561 130.62 C 147.545 130.636 147.561 130.661 147.583 130.652 C 148.543 130.197 150.354 130.333 151.26 131.633 C 151.272 131.652 151.254 131.674 151.235 131.665 C 149.205 130.813 146.015 131.971 145.743 134.688 C 145.743 134.71 145.772 134.723 145.784 134.704 C 145.876 134.534 146.097 134.171 146.516 133.805 C 148.139 132.372 150.695 132.788 150.319 132.826 C 149.322 132.949 147.274 133.839 146.516 135.872 C 145.898 137.535 146.494 139.722 146.516 139.179 C 146.535 137.333 147.593 134.856 150.206 134.228 C 150.225 134.221 150.24 134.25 150.225 134.262 C 146.166 137.835 148.621 142.219 148.584 141.875 C 148.457 140.458 148.353 137.93 150.698 136.02 C 150.717 136.008 150.745 136.027 150.733 136.045 C 150.193 136.913 148.912 140.338 151.534 143.437 C 151.55 143.456 151.582 143.44 151.572 143.421 C 151.13 142.361 150.543 138.655 152.645 137.333 C 152.658 137.324 152.677 137.33 152.677 137.346 C 152.907 140.057 153.387 145.58 152.405 151.529 C 149.07 148.979 145.791 147.306 141.561 147.492 C 139.434 147.584 137.418 148.202 135.95 149.051 C 135.9 149.083 135.938 149.159 135.994 149.14 C 142.142 147.173 147.463 149.559 152.412 153.681 C 149.912 155.862 147.646 158.141 146.327 158.832 C 146.021 158.409 145.488 158.166 144.904 158.295 C 143.802 158.535 143.54 159.914 144.137 160.507 C 146.299 162.663 149.676 158.384 153.715 154.808 C 157.603 158.245 161.135 162.663 163.294 160.507 C 163.464 160.334 163.663 159.766 163.562 159.318 C 163.303 158.191 161.807 157.866 161.103 158.832 C 159.835 158.191 157.61 155.941 155.019 153.681 C 160.002 149.525 165.263 147.202 171.436 149.14 C 171.493 149.159 171.531 149.083 171.477 149.051" fill-opacity="1" fill-rule="nonzero" style="fill: rgb(73, 70, 70);"/>
  <g clip-path="url(#id2)" style="" transform="matrix(0.807933, 0, 0, 0.807933, 15.930714, 24.323097)">
    <path d="M 168.171875 227.261719 L 170.15625 227.261719 L 170.15625 209.480469 L 168.171875 209.480469 Z M 116.191406 225.28125 L 113.09375 217.675781 C 116.300781 214.957031 120.277344 215.457031 122.835938 217.675781 L 119.738281 225.28125 Z M 105.253906 225.28125 C 103.695312 225.234375 102.597656 225.429688 101.152344 224.972656 C 95.789062 223.277344 97.246094 215.816406 103.246094 215.816406 L 105.253906 215.816406 Z M 160.410156 225.28125 C 157.214844 225.183594 154.335938 225.84375 152.871094 223.300781 C 153.160156 222.027344 153 220.886719 153.046875 215.050781 L 151.0625 215.050781 L 151.0625 221.761719 C 151.0625 226.691406 145.121094 226.371094 143.71875 223.410156 C 143.15625 222.222656 143.5 221.722656 143.398438 215.050781 L 141.414062 215.050781 L 141.414062 221.914062 C 141.414062 224.152344 140.011719 225.28125 138.066406 225.28125 L 134.222656 225.28125 L 134.222656 215.050781 L 132.238281 215.050781 L 132.238281 225.28125 L 121.820312 225.28125 L 125.292969 216.980469 C 123.324219 215.257812 120.582031 213.636719 117.953125 213.636719 C 115.28125 213.636719 112.59375 215.1875 110.613281 216.980469 L 114.109375 225.28125 L 107.238281 225.28125 L 107.238281 213.8125 L 104.066406 213.8125 C 99.578125 213.8125 95.855469 216.390625 95.855469 220.625 C 95.855469 228.152344 105.085938 227.226562 105.253906 227.261719 C 105.222656 227.507812 105.503906 229.207031 104.363281 230.0625 C 103.296875 230.863281 101.394531 230.839844 100.207031 230.558594 C 99.71875 230.441406 99.164062 230.246094 98.535156 229.964844 L 97.914062 231.871094 C 99.171875 232.335938 100.375 232.714844 101.707031 232.714844 C 105.488281 232.714844 107.238281 230.828125 107.238281 227.632812 L 107.238281 227.261719 C 139.617188 227.058594 138.660156 227.730469 140.632812 226.644531 C 141.382812 226.230469 141.992188 225.679688 142.453125 224.984375 C 142.933594 225.777344 143.585938 226.398438 144.414062 226.84375 C 146.148438 227.773438 148.796875 227.6875 150.402344 226.890625 C 151.238281 226.480469 151.878906 225.84375 152.324219 224.984375 C 153.089844 226.292969 154.28125 227.132812 156.667969 227.238281 L 156.667969 227.261719 L 162.394531 227.261719 L 162.394531 209.480469 L 160.410156 209.480469 Z M 338.421875 224.402344 C 336.667969 228.507812 330.625 228.625 328.875 224.339844 C 328.363281 223.082031 328.363281 221.589844 328.875 220.3125 C 330.992188 215.0625 338.832031 216.570312 338.832031 222.332031 C 338.832031 223.074219 338.695312 223.765625 338.421875 224.402344 M 319.179688 224.402344 C 317.660156 227.929688 313.089844 228.453125 310.695312 225.988281 C 308.734375 223.957031 308.792969 220.648438 310.6875 218.65625 C 312.230469 217.015625 314.605469 216.75 316.425781 217.5 C 319.292969 218.699219 320.25 221.914062 319.179688 224.402344 M 270.929688 225.28125 C 269.414062 225.234375 268.3125 225.433594 266.875 224.960938 C 261.652344 223.242188 262.898438 215.792969 268.96875 215.792969 L 270.929688 215.792969 Z M 347.015625 225.28125 L 340.199219 225.28125 C 342.324219 220.605469 339.019531 215.125 333.574219 215.125 C 328.5625 215.125 325.054688 220.265625 327.101562 225.28125 L 320.953125 225.28125 C 323.027344 220.742188 319.882812 215.125 314.332031 215.125 C 309.3125 215.125 305.808594 220.269531 307.859375 225.28125 L 301.558594 225.28125 L 301.558594 209.480469 L 299.574219 209.480469 L 299.574219 225.28125 L 293.25 225.28125 C 293.144531 223.246094 293.714844 220.234375 292.011719 218.332031 C 290.855469 217.027344 289.570312 216.621094 287.820312 216.621094 L 279.039062 216.621094 L 282.773438 209.480469 L 280.617188 209.480469 L 276.808594 216.597656 C 276.929688 217.386719 277.171875 218.003906 277.703125 218.605469 C 287.625 218.6875 288.269531 218.394531 289.445312 218.890625 C 290.363281 219.269531 290.925781 219.964844 291.117188 220.808594 C 291.355469 221.828125 291.234375 222.59375 291.269531 225.28125 L 272.914062 225.28125 L 272.914062 213.8125 L 269.789062 213.8125 C 264.53125 213.8125 261.605469 216.941406 261.605469 220.546875 C 261.605469 225.070312 265.238281 227.261719 269.789062 227.261719 L 309.148438 227.261719 C 312.066406 230.410156 316.980469 230.144531 319.664062 227.261719 L 328.390625 227.261719 C 331.300781 230.402344 336.210938 230.152344 338.910156 227.261719 L 349 227.261719 L 349 209.480469 L 347.015625 209.480469 Z M 354.777344 227.261719 L 356.761719 227.261719 L 356.761719 209.480469 L 354.777344 209.480469 Z M 208.597656 231.625 L 210.636719 231.625 L 210.636719 229.589844 L 208.597656 229.589844 Z M 227.996094 225.28125 L 224.894531 217.675781 C 228.078125 214.980469 232.050781 215.433594 234.640625 217.675781 L 231.542969 225.28125 Z M 242.054688 225.28125 L 233.625 225.28125 L 237.097656 216.980469 C 235.121094 215.25 232.371094 213.636719 229.757812 213.636719 C 227.078125 213.636719 224.394531 215.195312 222.414062 216.980469 L 225.910156 225.28125 L 218.523438 225.28125 L 218.523438 213.8125 L 216.539062 213.8125 L 216.539062 227.683594 C 216.539062 229.4375 216.410156 230.730469 214.652344 230.730469 C 214.246094 230.730469 214.027344 230.695312 213.636719 230.582031 L 213.117188 232.492188 C 214.773438 232.945312 216.730469 232.792969 217.703125 231.363281 C 218.582031 230.066406 218.480469 228.28125 218.523438 227.261719 L 244.042969 227.261719 L 244.042969 209.480469 L 242.054688 209.480469 Z M 91.441406 215.546875 C 89.234375 213.136719 86.683594 214.007812 85.8125 213.8125 L 85.8125 215.792969 C 87.257812 215.847656 87.929688 215.632812 88.910156 216.101562 C 89.738281 216.5 90.320312 217.140625 90.5625 218.046875 C 90.828125 219.085938 90.679688 219.898438 90.722656 225.28125 L 81.421875 225.28125 L 81.421875 227.261719 L 92.707031 227.261719 C 92.625 219.753906 92.910156 218.957031 92.394531 217.277344 C 92.1875 216.601562 91.871094 216.023438 91.441406 215.546875 M 201.347656 231.648438 L 203.382812 231.648438 L 203.382812 229.613281 L 201.347656 229.613281 Z M 189.28125 225.28125 C 187.769531 225.234375 186.667969 225.433594 185.226562 224.960938 C 179.996094 223.242188 181.257812 215.792969 187.324219 215.792969 L 189.28125 215.792969 Z M 210.609375 213.8125 L 208.628906 213.8125 L 208.628906 225.28125 L 201.136719 225.28125 L 201.136719 213.8125 L 199.152344 213.8125 L 199.152344 225.28125 L 191.265625 225.28125 L 191.265625 213.8125 C 188.773438 213.890625 185.050781 213.304688 182.191406 215.730469 C 178.136719 219.167969 179.179688 227.261719 188.144531 227.261719 L 210.609375 227.261719 Z M 197.871094 231.648438 L 199.910156 231.648438 L 199.910156 229.613281 L 197.871094 229.613281 Z M 65.289062 209.480469 L 63.25 209.480469 L 63.25 211.515625 L 65.289062 211.515625 Z M 269.429688 209.480469 L 267.390625 209.480469 L 267.390625 211.515625 L 269.429688 211.515625 Z M 191.257812 209.480469 L 189.21875 209.480469 L 189.21875 211.515625 L 191.257812 211.515625 Z M 76.992188 231.648438 L 79.03125 231.648438 L 79.03125 229.613281 L 76.992188 229.613281 Z M 187.78125 209.480469 L 185.746094 209.480469 L 185.746094 211.515625 L 187.78125 211.515625 Z M 68.765625 209.480469 L 66.726562 209.480469 L 66.726562 211.515625 L 68.765625 211.515625 Z M 73.515625 231.648438 L 75.554688 231.648438 L 75.554688 229.613281 L 73.515625 229.613281 Z M 66.789062 225.28125 C 65.277344 225.234375 64.171875 225.433594 62.734375 224.960938 C 57.511719 223.246094 58.746094 215.792969 64.832031 215.792969 L 66.789062 215.792969 Z M 78.644531 213.8125 L 76.660156 213.8125 L 76.660156 225.28125 L 68.773438 225.28125 L 68.773438 213.8125 C 66.394531 213.882812 64.503906 213.574219 62.273438 214.316406 C 60.40625 214.945312 58.878906 216.101562 58.046875 217.875 C 57.179688 219.71875 57.335938 222.066406 58.136719 223.570312 C 59.570312 226.285156 62.578125 227.261719 65.648438 227.261719 L 78.644531 227.261719 Z M 249.820312 227.261719 L 251.804688 227.261719 L 251.804688 209.480469 L 249.820312 209.480469 Z M 272.902344 209.480469 L 270.867188 209.480469 L 270.867188 211.515625 L 272.902344 211.515625 Z M 272.902344 209.480469 " fill-opacity="1" fill-rule="nonzero" style="fill: rgb(73, 70, 70);"/>
  </g>
  <g clip-path="url(#id3)" style="" transform="matrix(0.807933, 0, 0, 0.807933, 15.930714, 24.323097)">
    <path d="M 59.40625 240.285156 L 61.898438 240.285156 L 61.898438 247.40625 L 68.636719 240.285156 L 71.695312 240.285156 L 65.804688 246.375 L 71.957031 254.441406 L 68.941406 254.441406 L 64.105469 248.074219 L 61.898438 250.339844 L 61.898438 254.441406 L 59.40625 254.441406 " fill-opacity="1" fill-rule="nonzero" style="fill: rgb(73, 70, 70);"/>
  </g>
  <g clip-path="url(#id4)" style="" transform="matrix(0.807933, 0, 0, 0.807933, 15.930714, 24.323097)">
    <path d="M 74.230469 240.285156 L 76.71875 240.285156 L 76.71875 254.441406 L 74.230469 254.441406 Z M 74.230469 240.285156 " fill-opacity="1" fill-rule="nonzero" style="fill: rgb(73, 70, 70);"/>
  </g>
  <g clip-path="url(#id5)" style="" transform="matrix(0.807933, 0, 0, 0.807933, 15.930714, 24.323097)">
    <path d="M 80.554688 240.285156 L 82.863281 240.285156 L 90.453125 250.074219 L 90.453125 240.285156 L 92.902344 240.285156 L 92.902344 254.441406 L 90.816406 254.441406 L 83.003906 244.371094 L 83.003906 254.441406 L 80.554688 254.441406 " fill-opacity="1" fill-rule="nonzero" style="fill: rgb(73, 70, 70);"/>
  </g>
  <g clip-path="url(#id6)" style="" transform="matrix(0.807933, 0, 0, 0.807933, 15.930714, 24.323097)">
    <path d="M 95.984375 247.40625 L 95.984375 247.363281 C 95.984375 243.402344 99.023438 240.042969 103.292969 240.042969 C 105.761719 240.042969 107.28125 240.730469 108.738281 241.964844 L 107.160156 243.847656 C 103.324219 240.582031 98.597656 242.933594 98.597656 247.324219 L 98.597656 247.363281 C 98.597656 250.277344 100.519531 252.421875 103.414062 252.421875 C 104.75 252.421875 105.964844 251.996094 106.835938 251.347656 L 106.835938 248.699219 L 103.210938 248.699219 L 103.210938 246.535156 L 109.246094 246.535156 L 109.246094 252.480469 C 104.179688 256.8125 95.984375 254.585938 95.984375 247.40625 " fill-opacity="1" fill-rule="nonzero" style="fill: rgb(73, 70, 70);"/>
  </g>
  <g clip-path="url(#id7)" style="" transform="matrix(0.807933, 0, 0, 0.807933, 15.930714, 24.323097)">
    <path d="M 117.96875 252.175781 C 124.578125 252.175781 124.5 242.550781 117.96875 242.550781 L 115.175781 242.550781 L 115.175781 252.175781 Z M 112.683594 240.285156 L 117.96875 240.285156 C 128.078125 240.285156 127.941406 254.441406 117.96875 254.441406 L 112.683594 254.441406 Z M 112.683594 240.285156 " fill-opacity="1" fill-rule="nonzero" style="fill: rgb(73, 70, 70);"/>
  </g>
  <g clip-path="url(#id8)" style="" transform="matrix(0.807933, 0, 0, 0.807933, 15.930714, 24.323097)">
    <path d="M 140.039062 247.40625 L 140.039062 247.363281 C 140.039062 244.613281 138.035156 242.332031 135.21875 242.332031 C 132.40625 242.332031 130.445312 244.574219 130.445312 247.324219 L 130.445312 247.363281 C 130.445312 250.117188 132.449219 252.402344 135.261719 252.402344 C 138.074219 252.402344 140.039062 250.15625 140.039062 247.40625 M 127.832031 247.40625 L 127.832031 247.363281 C 127.832031 243.382812 130.910156 240.042969 135.261719 240.042969 C 139.613281 240.042969 142.652344 243.339844 142.652344 247.324219 L 142.652344 247.363281 C 142.652344 251.347656 139.574219 254.683594 135.21875 254.683594 C 130.867188 254.683594 127.832031 251.390625 127.832031 247.40625 " fill-opacity="1" fill-rule="nonzero" style="fill: rgb(73, 70, 70);"/>
  </g>
  <g clip-path="url(#id9)" style="" transform="matrix(0.807933, 0, 0, 0.807933, 15.930714, 24.323097)">
    <path d="M 145.742188 240.285156 L 148.394531 240.285156 L 152.707031 246.980469 L 157.019531 240.285156 L 159.671875 240.285156 L 159.671875 254.441406 L 157.179688 254.441406 L 157.179688 244.289062 L 152.707031 250.964844 L 152.628906 250.964844 L 148.195312 244.332031 L 148.195312 254.441406 L 145.742188 254.441406 " fill-opacity="1" fill-rule="nonzero" style="fill: rgb(73, 70, 70);"/>
  </g>
  <g clip-path="url(#id10)" style="" transform="matrix(0.807933, 0, 0, 0.807933, 15.930714, 24.323097)">
    <path d="M 180.976562 247.40625 L 180.976562 247.363281 C 180.976562 244.613281 178.972656 242.332031 176.15625 242.332031 C 173.34375 242.332031 171.378906 244.574219 171.378906 247.324219 L 171.378906 247.363281 C 171.378906 250.117188 173.382812 252.402344 176.195312 252.402344 C 179.011719 252.402344 180.976562 250.15625 180.976562 247.40625 M 168.769531 247.40625 L 168.769531 247.363281 C 168.769531 243.382812 171.84375 240.042969 176.195312 240.042969 C 180.550781 240.042969 183.585938 243.339844 183.585938 247.324219 L 183.585938 247.363281 C 183.585938 251.347656 180.507812 254.683594 176.15625 254.683594 C 171.804688 254.683594 168.769531 251.390625 168.769531 247.40625 " fill-opacity="1" fill-rule="nonzero" style="fill: rgb(73, 70, 70);"/>
  </g>
  <g clip-path="url(#id11)" style="" transform="matrix(0.807933, 0, 0, 0.807933, 15.930714, 24.323097)">
    <path d="M 186.679688 240.285156 L 197.226562 240.285156 L 197.226562 242.550781 L 189.171875 242.550781 L 189.171875 246.414062 L 196.316406 246.414062 L 196.316406 248.679688 L 189.171875 248.679688 L 189.171875 254.441406 L 186.679688 254.441406 " fill-opacity="1" fill-rule="nonzero" style="fill: rgb(73, 70, 70);"/>
  </g>
  <g clip-path="url(#id12)" style="" transform="matrix(0.807933, 0, 0, 0.807933, 15.930714, 24.323097)">
    <path d="M 205.085938 252.382812 L 206.585938 250.601562 C 207.941406 251.773438 209.296875 252.441406 211.058594 252.441406 C 212.597656 252.441406 213.570312 251.734375 213.570312 250.660156 L 213.570312 250.621094 C 213.570312 247.460938 205.652344 249.617188 205.652344 244.230469 L 205.652344 244.191406 C 205.652344 239.84375 211.726562 238.738281 215.632812 241.863281 L 214.296875 243.746094 C 211.039062 241.316406 208.144531 242.273438 208.144531 243.96875 L 208.144531 244.007812 C 208.144531 247.128906 216.058594 245.15625 216.058594 250.378906 L 216.058594 250.417969 C 216.058594 255.382812 209.027344 255.894531 205.085938 252.382812 " fill-opacity="1" fill-rule="nonzero" style="fill: rgb(73, 70, 70);"/>
  </g>
  <g clip-path="url(#id13)" style="" transform="matrix(0.807933, 0, 0, 0.807933, 15.930714, 24.323097)">
    <path d="M 227.253906 248.820312 L 224.804688 243.160156 L 222.375 248.820312 Z M 223.691406 240.1875 L 225.996094 240.1875 L 232.230469 254.441406 L 229.601562 254.441406 L 228.164062 251.023438 L 221.460938 251.023438 L 220.007812 254.441406 L 217.453125 254.441406 Z M 223.691406 240.1875 " fill-opacity="1" fill-rule="nonzero" style="fill: rgb(73, 70, 70);"/>
  </g>
  <g clip-path="url(#id14)" style="" transform="matrix(0.807933, 0, 0, 0.807933, 15.930714, 24.323097)">
    <path d="M 233.695312 248.4375 L 233.695312 240.285156 L 236.1875 240.285156 L 236.1875 248.335938 C 236.1875 250.964844 237.542969 252.382812 239.769531 252.382812 C 241.976562 252.382812 243.332031 251.046875 243.332031 248.4375 L 243.332031 240.285156 L 245.824219 240.285156 L 245.824219 248.316406 C 245.824219 252.542969 243.433594 254.667969 239.730469 254.667969 C 236.042969 254.667969 233.695312 252.542969 233.695312 248.4375 " fill-opacity="1" fill-rule="nonzero" style="fill: rgb(73, 70, 70);"/>
  </g>
  <g clip-path="url(#id15)" style="" transform="matrix(0.807933, 0, 0, 0.807933, 15.930714, 24.323097)">
    <path d="M 254.75 252.175781 C 261.359375 252.175781 261.28125 242.550781 254.75 242.550781 L 251.957031 242.550781 L 251.957031 252.175781 Z M 249.46875 240.285156 L 254.75 240.285156 C 264.863281 240.285156 264.726562 254.441406 254.75 254.441406 L 249.46875 254.441406 Z M 249.46875 240.285156 " fill-opacity="1" fill-rule="nonzero" style="fill: rgb(73, 70, 70);"/>
  </g>
  <g clip-path="url(#id16)" style="" transform="matrix(0.807933, 0, 0, 0.807933, 15.930714, 24.323097)">
    <path d="M 265.4375 240.285156 L 267.925781 240.285156 L 267.925781 254.441406 L 265.4375 254.441406 Z M 265.4375 240.285156 " fill-opacity="1" fill-rule="nonzero" style="fill: rgb(73, 70, 70);"/>
  </g>
  <g clip-path="url(#id17)" style="" transform="matrix(0.807933, 0, 0, 0.807933, 15.930714, 24.323097)">
    <path d="M 286.371094 248.820312 L 283.921875 243.160156 L 281.492188 248.820312 Z M 282.808594 240.1875 L 285.117188 240.1875 L 291.351562 254.441406 L 288.71875 254.441406 L 287.28125 251.023438 L 280.582031 251.023438 L 279.125 254.441406 L 276.574219 254.441406 Z M 282.808594 240.1875 " fill-opacity="1" fill-rule="nonzero" style="fill: rgb(73, 70, 70);"/>
  </g>
  <g clip-path="url(#id18)" style="" transform="matrix(0.807933, 0, 0, 0.807933, 15.930714, 24.323097)">
    <path d="M 299.839844 247.304688 C 301.621094 247.304688 302.753906 246.375 302.753906 244.9375 L 302.753906 244.898438 C 302.753906 243.382812 301.660156 242.550781 299.816406 242.550781 L 296.195312 242.550781 L 296.195312 247.304688 Z M 293.707031 240.285156 L 300.019531 240.285156 C 303.015625 240.285156 305.285156 241.792969 305.285156 244.753906 C 305.226562 244.910156 305.578125 248.035156 301.902344 249.085938 L 305.730469 254.441406 L 302.792969 254.441406 L 299.3125 249.507812 C 299.039062 249.507812 296.035156 249.507812 296.195312 249.507812 L 296.195312 254.441406 L 293.707031 254.441406 Z M 293.707031 240.285156 " fill-opacity="1" fill-rule="nonzero" style="fill: rgb(73, 70, 70);"/>
  </g>
  <g clip-path="url(#id19)" style="" transform="matrix(0.807933, 0, 0, 0.807933, 15.930714, 24.323097)">
    <path d="M 317.359375 248.820312 L 314.910156 243.160156 L 312.480469 248.820312 Z M 313.796875 240.1875 L 316.105469 240.1875 L 322.339844 254.441406 L 319.707031 254.441406 L 318.269531 251.023438 L 311.570312 251.023438 L 310.113281 254.441406 L 307.5625 254.441406 Z M 313.796875 240.1875 " fill-opacity="1" fill-rule="nonzero" style="fill: rgb(73, 70, 70);"/>
  </g>
  <g clip-path="url(#id20)" style="" transform="matrix(0.807933, 0, 0, 0.807933, 15.930714, 24.323097)">
    <path d="M 331.269531 252.238281 C 332.972656 252.238281 334.003906 251.570312 334.003906 250.296875 L 334.003906 250.257812 C 334.003906 249.066406 333.050781 248.355469 331.089844 248.355469 L 327.140625 248.355469 L 327.140625 252.238281 Z M 330.542969 246.253906 C 332.140625 246.253906 333.214844 245.625 333.214844 244.332031 L 333.214844 244.289062 C 333.214844 243.179688 332.324219 242.492188 330.722656 242.492188 L 327.140625 242.492188 L 327.140625 246.253906 Z M 324.691406 240.285156 L 331.046875 240.285156 C 333.539062 240.285156 335.703125 241.453125 335.703125 243.886719 C 335.644531 244.042969 335.957031 245.898438 333.679688 247.082031 C 335.339844 247.648438 336.492188 248.597656 336.492188 250.519531 L 336.492188 250.558594 C 336.492188 253.089844 334.40625 254.441406 331.25 254.441406 L 324.691406 254.441406 Z M 324.691406 240.285156 " fill-opacity="1" fill-rule="nonzero" style="fill: rgb(73, 70, 70);"/>
  </g>
  <g clip-path="url(#id21)" style="" transform="matrix(0.807933, 0, 0, 0.807933, 15.930714, 24.323097)">
    <path d="M 339.578125 240.285156 L 342.066406 240.285156 L 342.066406 254.441406 L 339.578125 254.441406 Z M 339.578125 240.285156 " fill-opacity="1" fill-rule="nonzero" style="fill: rgb(73, 70, 70);"/>
  </g>
  <g clip-path="url(#id22)" style="" transform="matrix(0.807933, 0, 0, 0.807933, 15.930714, 24.323097)">
    <path d="M 354.242188 248.820312 L 351.792969 243.160156 L 349.363281 248.820312 Z M 350.679688 240.1875 L 352.984375 240.1875 L 359.222656 254.441406 L 356.589844 254.441406 L 355.152344 251.023438 L 348.453125 251.023438 L 346.996094 254.441406 L 344.445312 254.441406 Z M 350.679688 240.1875 " fill-opacity="1" fill-rule="nonzero" style="fill: rgb(73, 70, 70);"/>
  </g>
  <rect x="548.852" y="132.178" class="st0" width="53.264" height="39.693" style="fill: rgb(73, 70, 70);"/>
  <path class="st0" d="M 548.852 132.178 L 548.852 171.863 L 602.116 171.863 L 602.116 132.178 L 548.852 132.178 Z M 575.898 167.644 L 575.818 167.644 L 575.818 160.201 L 552.147 160.201 L 552.147 145.341 L 575.818 145.341 L 575.818 138.125 L 596.753 152.912 L 575.898 167.644 Z" style="fill: rgb(73, 70, 70);"/>
  <path class="st1" d="M 641.378 123.028 L 641.378 123.028 C 633.163 123.028 626.505 129.686 626.505 137.9 L 626.505 137.9 L 626.505 167.644 L 626.505 182.516 L 641.378 182.516 L 656.248 182.516 L 671.121 212.262 L 671.121 182.516 L 671.121 167.644 L 671.121 137.9 L 671.121 123.028 L 656.248 123.028 L 641.378 123.028 Z M 656.248 167.644 L 641.378 167.644 L 641.378 137.9 L 656.248 137.9 L 656.248 167.644 Z" style="fill: rgb(73, 70, 70);"/>
  <polygon class="st1" points="418.293 152.773 433.169 152.773 433.169 142.855 418.293 142.855 418.293 132.944 433.169 132.944 433.169 123.028 418.293 123.028 408.384 123.028 408.384 132.944 408.384 142.855 403.423 142.855 388.551 152.773 408.384 152.773" style="fill: rgb(73, 70, 70);"/>
  <path class="st1" d="M 552.141 123.028 C 548.038 123.028 544.316 124.693 541.629 127.381 C 538.94 130.075 537.274 133.789 537.274 137.894 L 537.274 167.644 L 522.404 167.644 L 522.404 93.282 L 507.53 93.282 L 507.53 146.613 L 492.665 161.48 L 492.665 146.587 L 477.784 146.587 L 477.784 146.618 L 462.911 161.48 L 462.911 93.282 L 448.039 93.282 L 448.039 167.644 L 403.423 167.644 L 373.677 182.516 L 462.911 182.516 L 477.784 167.627 L 477.784 182.516 L 492.665 182.516 L 492.665 182.51 L 507.469 167.704 L 507.469 182.516 L 537.274 182.516 L 537.274 212.262 L 552.147 182.516 L 611.632 182.516 L 611.632 123.028 L 552.141 123.028 Z M 573.002 138.125 L 573.082 138.125 L 573.082 145.567 L 596.753 145.567 L 596.753 160.427 L 573.082 160.427 L 573.082 167.644 L 552.147 152.857 L 573.002 138.125 Z" style="fill: rgb(140, 139, 139);"/>
  <rect x="536.497" y="93.403" class="st1" width="134.626" height="14.86" style="fill: rgb(73, 70, 70);"/>
  <path class="st1" d="M 478.29 132.178 C 482.332 132.178 485.617 128.954 485.725 124.937 C 485.828 128.954 489.118 132.178 493.162 132.178 C 497.272 132.178 500.605 128.845 500.605 124.735 C 500.605 120.626 497.272 117.294 493.162 117.294 C 489.118 117.294 485.835 120.515 485.725 124.534 C 485.624 120.515 482.332 117.294 478.29 117.294 C 474.179 117.294 470.847 120.626 470.847 124.735 C 470.847 128.845 474.179 132.178 478.29 132.178 Z" style="fill: rgb(73, 70, 70);"/>
</svg>